<svg width="825" height="497" viewBox="0 0 825 497" fill="none" xmlns="http://www.w3.org/2000/svg">
<path opacity="0.5" fill-rule="evenodd" clip-rule="evenodd" d="M307.333 131.298C344.302 53.7386 424.609 -0.000431167 517.73 -0.000431167C625.447 -0.000431167 716.032 71.9241 742.2 169.447C749.354 168.469 756.662 167.964 764.091 167.964C850.855 167.964 921.202 236.898 921.202 321.931C921.202 341.682 917.406 360.565 910.491 377.917H917.629C951.148 377.917 978.326 404.552 978.326 437.411C978.326 470.261 951.148 496.896 917.629 496.896H60.6972C27.1697 496.896 0 470.261 0 437.411C0 404.552 27.1697 377.917 60.6972 377.917H98.6987C81.4304 351.7 71.4082 320.467 71.4082 286.939C71.4082 194.177 148.137 118.98 242.788 118.98C265.622 118.98 287.412 123.356 307.333 131.298Z" fill="url(#paint0_linear_3623_27656)"/>
<g opacity="0.2" clip-path="url(#clip0_3623_27656)">
<path d="M537.659 372.91C536.606 377.084 535.735 380.765 534.704 384.378C534.553 384.748 534.327 385.084 534.04 385.366C533.752 385.647 533.409 385.869 533.032 386.017C522.425 389.518 511.979 393.782 501.121 396.138C491.73 398.192 481.92 397.354 473.035 393.737C467.288 391.46 462.429 387.452 459.159 382.293C455.889 377.133 454.379 371.088 454.846 365.032C455.51 350.467 460.664 337.001 464.307 323.154C467.262 311.933 470.469 300.554 473.012 289.131C473.607 285.116 473.561 281.035 472.874 277.034C472.416 272.725 469.484 270.301 465.2 269.516C457.967 268.12 450.475 268.822 443.643 271.535C442.567 271.939 441.353 272.119 439.703 272.568C440.688 268.506 441.444 264.915 442.498 261.346C442.694 260.871 442.985 260.439 443.355 260.077C443.725 259.714 444.166 259.429 444.651 259.237C456.106 254.928 467.262 250.26 479.541 248.801C487.199 247.821 494.984 248.589 502.289 251.045C515.69 255.534 522.769 267.406 521.853 281.276C520.868 296.784 515.14 311.08 511.383 325.87C508.665 336.642 506.031 347.437 503.48 358.255C503.116 360.132 502.993 362.048 503.114 363.955C503.297 372.169 506.71 376.097 515.026 376.254C520.823 376.081 526.597 375.474 532.299 374.436C534.121 374.054 535.912 373.544 537.659 372.91Z" fill="#A1A1A1"/>
<path d="M512.62 172.809C527.946 173.1 539.309 183.11 540.637 197.496C541.6 207.55 535.277 217.47 524.854 222.318C510.582 228.938 492.576 223.036 485.909 209.57C477.479 192.289 491.82 172.449 512.62 172.809Z" fill="#A1A1A1"/>
</g>
<defs>
<linearGradient id="paint0_linear_3623_27656" x1="708.056" y1="-31.0902" x2="436.562" y2="498.593" gradientUnits="userSpaceOnUse">
<stop stop-color="#EAEAEA"/>
<stop offset="1" stop-color="#DEDEDE"/>
</linearGradient>
<clipPath id="clip0_3623_27656">
<rect width="229.084" height="280.536" fill="white" transform="translate(375.695 172.809)"/>
</clipPath>
</defs>
</svg>
