<svg width="311" height="251" viewBox="0 0 311 251" fill="none" xmlns="http://www.w3.org/2000/svg">
<path d="M142.806 121.425C145.324 119.93 148.457 119.93 150.975 121.425L255.972 183.767C257.283 184.545 257.276 186.444 255.961 187.213L150.929 248.638C148.434 250.097 145.347 250.097 142.852 248.638L37.8204 187.213C36.505 186.444 36.4987 184.545 37.809 183.767L142.806 121.425Z" fill="url(#paint0_diamond_3621_27397)" fill-opacity="0.05"/>
<path d="M144.343 75.8554C145.995 75.3004 147.784 75.3004 149.437 75.8554L256.891 111.943L256.891 142.29C256.891 143.004 256.51 143.664 255.891 144.022L150.892 204.688C148.415 206.118 145.364 206.118 142.887 204.688L37.8901 144.024C37.2716 143.666 36.8906 143.006 36.8906 142.292L36.8906 111.943L144.343 75.8554Z" fill="url(#paint1_linear_3621_27397)"/>
<path d="M142.806 48.4251C145.324 46.9302 148.457 46.9302 150.975 48.4251L255.972 110.767C257.283 111.545 257.276 113.444 255.961 114.213L150.929 175.638C148.434 177.097 145.347 177.097 142.852 175.638L37.8204 114.213C36.505 113.444 36.4987 111.545 37.809 110.767L142.806 48.4251Z" fill="url(#paint2_linear_3621_27397)"/>
<path d="M142.8 52.4336C145.321 50.9339 148.46 50.9339 150.981 52.4336L248.98 110.738C250.288 111.516 250.282 113.413 248.968 114.182L150.935 171.63C148.438 173.094 145.344 173.094 142.846 171.63L44.813 114.182C43.4996 113.413 43.4933 111.516 44.8015 110.738L142.8 52.4336Z" fill="url(#paint3_linear_3621_27397)"/>
<path d="M142.806 76.4251C145.324 74.9302 148.457 74.9302 150.975 76.4251L230.891 123.875L150.929 170.638C148.434 172.097 145.347 172.097 142.852 170.638L62.8906 123.875L142.806 76.4251Z" fill="url(#paint4_linear_3621_27397)"/>
<path d="M142.775 9.46887C145.308 7.94921 148.473 7.94939 151.006 9.46933L256.891 73.0012L256.891 77.7955C256.891 78.5025 256.517 79.1569 255.909 79.5169L150.932 141.61C148.437 143.085 145.338 143.096 142.833 141.637L37.8841 80.5152C37.269 80.157 36.8906 79.4988 36.8906 78.7869L36.8906 72.984L142.775 9.46887Z" fill="url(#paint5_linear_3621_27397)"/>
<path d="M142.806 8.42506C145.324 6.93017 148.457 6.93018 150.975 8.42506L255.972 70.7672C257.283 71.5452 257.276 73.4441 255.961 74.2134L150.929 135.638C148.434 137.097 145.347 137.097 142.852 135.638L37.8204 74.2134C36.505 73.4441 36.4987 71.5452 37.809 70.7672L142.806 8.42506Z" fill="url(#paint6_linear_3621_27397)"/>
<path d="M143.029 21.4903C145.561 19.9579 148.731 19.9479 151.272 21.4644L234.012 70.8464C235.313 71.6223 235.312 73.5056 234.012 74.2813L149.707 124.573C147.198 126.07 144.072 126.08 141.554 124.599L58.7807 75.9403C57.4753 75.1729 57.4631 73.2894 58.7585 72.5052L143.029 21.4903Z" fill="#333D5E"/>
<path d="M143.786 20.1122C146.175 18.7961 149.07 18.7881 151.466 20.0909L232.891 64.3559L232.891 70.873C232.891 71.582 232.515 72.2379 231.904 72.5972L150.18 120.635C147.695 122.097 144.615 122.107 142.119 120.663L61.8888 74.2291C61.271 73.8715 60.8906 73.2118 60.8906 72.4981L60.8906 65.773L143.786 20.1122Z" fill="url(#paint7_linear_3621_27397)"/>
<path d="M143.509 15.4896C146.04 13.9576 149.21 13.9476 151.751 15.4638L232.012 63.3584C233.312 64.1344 233.312 66.0178 232.011 66.7935L150.227 115.574C147.718 117.07 144.594 117.08 142.075 115.6L61.7813 68.4059C60.4757 67.6385 60.4635 65.7548 61.7591 64.9706L143.509 15.4896Z" fill="url(#paint8_linear_3621_27397)"/>
<g clip-path="url(#clip0_3621_27397)">
<path fill-rule="evenodd" clip-rule="evenodd" d="M137.081 36.3736C138.814 35.3733 141.623 35.3733 143.356 36.3736L196 66.7649C197.733 67.7652 197.733 69.3871 196 70.3874L157.872 92.3985C156.14 93.3988 153.33 93.3988 151.597 92.3985L98.9537 62.0072C97.2209 61.0069 97.2209 59.385 98.9537 58.3847L137.081 36.3736ZM137.657 39.9848L189.744 70.055L154.735 90.2661L102.647 60.1959L137.657 39.9848ZM190.169 68.3297C190.877 68.7381 192.023 68.7381 192.731 68.3297C193.438 67.9213 193.438 67.2592 192.731 66.8508C192.023 66.4425 190.877 66.4425 190.169 66.8508C189.462 67.2592 189.462 67.9213 190.169 68.3297ZM186.756 64.879C186.048 65.2873 184.901 65.2873 184.194 64.879C183.486 64.4706 183.486 63.8085 184.194 63.4001C184.901 62.9917 186.048 62.9917 186.755 63.4001C187.463 63.8085 187.463 64.4706 186.756 64.879ZM178.217 61.4283C178.924 61.8367 180.071 61.8367 180.779 61.4283C181.486 61.0199 181.486 60.3578 180.779 59.9495C180.071 59.5411 178.924 59.5411 178.217 59.9495C177.509 60.3578 177.509 61.0199 178.217 61.4283Z" fill="white"/>
<path d="M130.344 49.1382L132.277 50.2545L128.306 52.5475L128.384 52.5928C128.863 52.457 129.386 52.4017 129.952 52.4268C130.518 52.452 131.071 52.6204 131.611 52.9322C132.317 53.3395 132.613 53.782 132.5 54.2597C132.395 54.7424 131.907 55.2352 131.036 55.7381L126.738 58.2196L124.804 57.1033L128.946 54.7123C129.39 54.4558 129.647 54.227 129.717 54.0259C129.795 53.8197 129.656 53.6135 129.299 53.4074C129.142 53.3169 128.968 53.2414 128.776 53.1811C128.593 53.1157 128.397 53.073 128.188 53.0529C127.988 53.0378 127.787 53.0478 127.587 53.083C127.395 53.1132 127.217 53.1761 127.051 53.2716L122.609 55.8361L120.675 54.7198L130.344 49.1382Z" fill="white"/>
<path d="M131.908 61.2043C131.237 60.8171 130.897 60.4249 130.889 60.0276C130.889 59.6354 131.215 59.2507 131.869 58.8736L135.226 56.9351L134.26 56.377L135.762 55.5095L136.245 55.7886C136.507 55.9395 136.746 56.0074 136.964 55.9923C137.191 55.9722 137.421 55.8942 137.657 55.7585L138.78 55.1098L140.518 56.113L138.663 57.184L140.021 57.9685L138.519 58.8359L137.16 58.0514L133.306 60.2765L134.56 61.0006L133.057 61.8681L131.908 61.2043Z" fill="white"/>
<path d="M137.891 64.6583C137.22 64.2711 136.88 63.8789 136.872 63.4817C136.872 63.0895 137.198 62.7048 137.852 62.3276L141.209 60.3892L140.243 59.831L141.745 58.9636L142.229 59.2427C142.49 59.3935 142.729 59.4614 142.947 59.4463C143.174 59.4262 143.404 59.3483 143.64 59.2125L144.763 58.5638L146.501 59.567L144.646 60.6381L146.005 61.4225L144.502 62.2899L143.143 61.5055L139.289 63.7306L140.543 64.4547L139.041 65.3221L137.891 64.6583Z" fill="white"/>
<path d="M148.393 62.8014L150.327 63.9177L149.177 64.5815L149.242 64.6192C149.721 64.4533 150.253 64.398 150.836 64.4533C151.429 64.5136 151.947 64.672 152.391 64.9285C153.262 65.4313 153.615 65.987 153.449 66.5954C153.284 67.2038 152.618 67.845 151.45 68.5188C150.283 69.1926 149.168 69.5798 148.106 69.6804C147.052 69.7759 146.089 69.5723 145.218 69.0694C144.992 68.9387 144.813 68.7954 144.682 68.6395C144.543 68.4886 144.447 68.3327 144.395 68.1718C144.36 68.0109 144.365 67.8525 144.408 67.6966C144.46 67.5357 144.552 67.3874 144.682 67.2516L144.617 67.2139L140.854 69.3862L138.921 68.2699L148.393 62.8014ZM146.146 67.7947C146.512 68.0059 146.938 68.1065 147.426 68.0964C147.931 68.0863 148.402 67.9556 148.837 67.7042L150.026 67.0178C150.462 66.7664 150.684 66.4973 150.693 66.2107C150.719 65.9241 150.549 65.6752 150.183 65.464C149.817 65.2528 149.421 65.1296 148.994 65.0944C148.585 65.0592 148.223 65.1321 147.91 65.3131L145.884 66.4823C145.571 66.6633 145.44 66.8745 145.493 67.1159C145.562 67.3572 145.78 67.5835 146.146 67.7947Z" fill="white"/>
<path d="M151.639 72.7608C151.247 72.5345 151.051 72.3108 151.051 72.0895C151.068 71.8683 151.229 71.6696 151.534 71.4936L151.795 71.3428C152.1 71.1668 152.44 71.0763 152.814 71.0712C153.206 71.0662 153.598 71.1768 153.99 71.4031C154.382 71.6294 154.57 71.8532 154.552 72.0744C154.552 72.2957 154.4 72.4943 154.095 72.6703L153.834 72.8212C153.529 72.9972 153.18 73.0877 152.788 73.0927C152.414 73.0977 152.03 72.9871 151.639 72.7608ZM156.434 69.9926C156.042 69.7664 155.846 69.5426 155.846 69.3213C155.863 69.1001 156.024 68.9015 156.329 68.7255L156.59 68.5746C156.895 68.3986 157.235 68.3081 157.609 68.3031C158.001 68.298 158.393 68.4087 158.785 68.6349C159.177 68.8612 159.365 69.085 159.347 69.3062C159.347 69.5275 159.195 69.7261 158.89 69.9021L158.629 70.053C158.324 70.229 157.975 70.3195 157.583 70.3245C157.209 70.3295 156.826 70.2189 156.434 69.9926Z" fill="white"/>
<path d="M153.051 75.688L168.586 71.2151L170.179 72.1354L154.645 76.6082L153.051 75.688Z" fill="white"/>
<path d="M157.617 78.3244L173.152 73.8516L174.746 74.7718L159.211 79.2446L157.617 78.3244Z" fill="white"/>
</g>
<line x1="1" y1="-1" x2="19.9945" y2="-1" transform="matrix(-0.010406 -1.01666 0.862803 0.472183 133.742 194.821)" stroke="#9098B0" stroke-opacity="0.9" stroke-width="2" stroke-linecap="round"/>
<line x1="1" y1="-1" x2="19.9945" y2="-1" transform="matrix(-0.010406 -1.01666 0.862803 0.472183 125.977 190.268)" stroke="#9098B0" stroke-opacity="0.9" stroke-width="2" stroke-linecap="round"/>
<line x1="1" y1="-1" x2="19.9945" y2="-1" transform="matrix(-0.010406 -1.01666 0.862803 0.472183 118.195 186.716)" stroke="#9098B0" stroke-opacity="0.9" stroke-width="2" stroke-linecap="round"/>
<line x1="1" y1="-1" x2="19.9945" y2="-1" transform="matrix(-0.010406 -1.01666 0.862803 0.472183 110.43 182.163)" stroke="#9098B0" stroke-opacity="0.9" stroke-width="2" stroke-linecap="round"/>
<rect width="5.00826" height="4.00307" rx="1" transform="matrix(-0.862803 -0.472183 -0.010406 -1.01666 134.758 187.328)" fill="#737B96"/>
<rect width="5.00826" height="4.00307" rx="1" transform="matrix(-0.862803 -0.472183 -0.010406 -1.01666 127 182.776)" fill="#737B96"/>
<rect width="5.00826" height="4.00307" rx="1" transform="matrix(-0.862803 -0.472183 -0.010406 -1.01666 119.234 178.223)" fill="#737B96"/>
<rect width="5.00826" height="4.00307" rx="1" transform="matrix(-0.862803 -0.472183 -0.010406 -1.01666 111.453 174.671)" fill="#737B96"/>
<line x1="0.5" y1="-0.5" x2="2.49539" y2="-0.5" transform="matrix(-0.862803 -0.472183 -0.0104059 -1.01666 133.953 183.823)" stroke="white" stroke-linecap="round"/>
<line x1="0.5" y1="-0.5" x2="2.49539" y2="-0.5" transform="matrix(-0.862803 -0.472183 -0.0104059 -1.01666 126.195 179.27)" stroke="white" stroke-linecap="round"/>
<line x1="0.5" y1="-0.5" x2="2.49539" y2="-0.5" transform="matrix(-0.862803 -0.472183 -0.0104059 -1.01666 118.406 175.718)" stroke="white" stroke-linecap="round"/>
<line x1="0.5" y1="-0.5" x2="2.49539" y2="-0.5" transform="matrix(-0.862803 -0.472183 -0.0104059 -1.01666 111.508 171.671)" stroke="white" stroke-linecap="round"/>
<circle r="11" transform="matrix(0.865468 -0.500965 -0.0197083 0.999806 240.194 139.487)" fill="#9098B0"/>
<line x1="1" y1="-1" x2="35" y2="-1" transform="matrix(0.871846 -0.489781 0.49154 0.870855 194.891 173)" stroke="#9098B0" stroke-width="2" stroke-linecap="round"/>
<line x1="1" y1="-1" x2="35" y2="-1" transform="matrix(0.867628 -0.497213 0.499016 0.866593 194.891 166)" stroke="#9098B0" stroke-width="2" stroke-linecap="round"/>
<line x1="1" y1="-1" x2="35" y2="-1" transform="matrix(0.866066 -0.49993 0.501748 0.865014 194.891 159)" stroke="#9098B0" stroke-width="2" stroke-linecap="round"/>
<path d="M240.68 130.491C239.657 131.083 238.639 131.902 237.686 132.902C236.732 133.901 235.86 135.061 235.12 136.315C234.38 137.569 233.787 138.893 233.374 140.212C232.961 141.53 232.737 142.817 232.713 143.998L235.297 142.503C235.313 141.713 235.463 140.853 235.739 139.972C236.015 139.091 236.411 138.206 236.906 137.368C237.4 136.53 237.983 135.755 238.62 135.087C239.257 134.419 239.937 133.872 240.621 133.476L240.68 130.491Z" fill="#DBDFEA"/>
<path d="M248.713 133.998C248.737 132.817 248.558 131.763 248.188 130.898C247.818 130.033 247.264 129.373 246.557 128.956C245.85 128.539 245.005 128.373 244.069 128.468C243.133 128.563 242.124 128.917 241.101 129.509L241.043 132.494C241.726 132.098 242.4 131.862 243.026 131.798C243.651 131.735 244.216 131.846 244.689 132.124C245.161 132.403 245.531 132.844 245.778 133.422C246.026 134 246.145 134.704 246.129 135.494L248.713 133.998Z" fill="#DBDFEA"/>
<path d="M244.792 135.999C244.805 135.343 244.706 134.757 244.5 134.277C244.295 133.796 243.987 133.429 243.594 133.198C243.202 132.966 242.732 132.874 242.212 132.927C241.692 132.979 241.132 133.176 240.563 133.505L240.517 135.853C240.818 135.678 241.115 135.574 241.391 135.546C241.667 135.518 241.916 135.567 242.124 135.69C242.333 135.813 242.496 136.007 242.605 136.262C242.714 136.517 242.767 136.827 242.76 137.175L244.792 135.999Z" fill="#DBDFEA"/>
<path d="M240.218 134.495C239.65 134.824 239.084 135.279 238.554 135.834C238.024 136.389 237.54 137.034 237.129 137.731C236.718 138.427 236.389 139.163 236.159 139.895C235.93 140.628 235.805 141.343 235.792 141.999L237.824 140.823C237.831 140.474 237.897 140.095 238.019 139.707C238.141 139.319 238.316 138.928 238.534 138.559C238.752 138.189 239.008 137.848 239.289 137.553C239.571 137.259 239.87 137.017 240.172 136.843L240.218 134.495Z" fill="#DBDFEA"/>
<path d="M235.989 143.001C235.976 143.657 236.075 144.243 236.281 144.723C236.486 145.204 236.794 145.571 237.187 145.802C237.58 146.034 238.049 146.126 238.569 146.073C239.09 146.021 239.65 145.824 240.218 145.495L240.264 143.147C239.963 143.322 239.666 143.426 239.39 143.454C239.114 143.482 238.865 143.433 238.657 143.31C238.449 143.187 238.285 142.993 238.176 142.738C238.067 142.483 238.015 142.173 238.022 141.825L235.989 143.001Z" fill="#DBDFEA"/>
<path d="M240.563 144.505C241.132 144.176 241.697 143.721 242.227 143.166C242.757 142.611 243.241 141.966 243.652 141.269C244.063 140.573 244.393 139.837 244.622 139.105C244.851 138.372 244.976 137.657 244.989 137.001L242.957 138.177C242.95 138.526 242.884 138.905 242.762 139.293C242.64 139.681 242.466 140.072 242.248 140.441C242.03 140.811 241.773 141.152 241.492 141.447C241.211 141.741 240.911 141.983 240.61 142.157L240.563 144.505Z" fill="#DBDFEA"/>
<path d="M241.101 148.509C242.124 147.917 243.142 147.098 244.096 146.098C245.05 145.099 245.921 143.939 246.661 142.685C247.401 141.431 247.994 140.107 248.407 138.788C248.82 137.47 249.045 136.183 249.068 135.002L246.484 136.497C246.468 137.287 246.318 138.147 246.042 139.028C245.766 139.909 245.37 140.794 244.876 141.632C244.381 142.47 243.799 143.245 243.161 143.913C242.524 144.581 241.844 145.128 241.16 145.524L241.101 148.509Z" fill="#DBDFEA"/>
<path d="M232.068 145.002C232.045 146.183 232.223 147.237 232.593 148.102C232.963 148.967 233.517 149.627 234.224 150.044C234.931 150.461 235.776 150.627 236.713 150.532C237.649 150.437 238.657 150.083 239.68 149.491L239.739 146.506C239.055 146.902 238.381 147.138 237.756 147.202C237.13 147.265 236.565 147.154 236.093 146.876C235.62 146.597 235.25 146.156 235.003 145.578C234.756 145 234.636 144.296 234.652 143.506L232.068 145.002Z" fill="#DBDFEA"/>
<path d="M161.237 175.519L188.025 159.926L188.424 168.89L161.633 184.443L161.237 175.519Z" fill="#005BBB"/>
<path d="M161.221 183.486L188.074 167.993L188.422 176.894L161.568 192.387L161.221 183.486Z" fill="#FFD500"/>
<path d="M94.9767 170.841L87.4158 166.474L87.6656 149.354L95.2265 153.721L99.5613 164.532L94.9767 170.841Z" fill="#F0F2FA"/>
<path d="M92.5237 171.303L44.4135 143.537L44.6846 122.37L92.7901 150.395L92.5237 171.303Z" fill="#37A7F7"/>
<path d="M57.2813 151.315L53.2 148.962L49.6867 136.347L53.4721 127.796L57.5535 130.17L53.768 138.705L57.2813 151.315Z" fill="#F0F2FA"/>
<path d="M64.1563 155.416L60.0749 153.06L56.5618 140.436L60.3476 131.895L64.4292 134.28L60.6432 142.793L64.1563 155.416Z" fill="#F0F2FA"/>
<path d="M70.1641 159.001L66.0826 156.646L62.5697 144.013L66.3561 135.481L70.4377 137.859L66.6513 146.37L70.1641 159.001Z" fill="#F0F2FA"/>
<ellipse rx="1.99971" ry="1.99994" transform="matrix(-0.859147 -0.496198 0.0131521 -1.00783 95.3708 161.88)" fill="#3FB036"/>
<path d="M86.8225 159.287L84.3182 159.4L83.7955 162.674L81.813 158.86L79.0274 157.606L80.3064 155.136L79.1075 151.088L81.8804 153.375L83.9251 152.127L84.3599 156.01L86.8225 159.287Z" fill="#F0F2FA"/>
<path d="M37.3516 114.034L43.6608 118.457L43.6608 134.345L37.3516 134.345L37.3516 114.034Z" fill="#C9D1DF"/>
<defs>
<radialGradient id="paint0_diamond_3621_27397" cx="0" cy="0" r="1" gradientUnits="userSpaceOnUse" gradientTransform="translate(146.891 102.5) rotate(90) scale(148.5 270.1)">
<stop stop-opacity="0"/>
<stop offset="0.449103" stop-opacity="0"/>
<stop offset="0.654251" stop-opacity="0"/>
<stop offset="1"/>
</radialGradient>
<linearGradient id="paint1_linear_3621_27397" x1="34.9453" y1="141" x2="258.834" y2="141" gradientUnits="userSpaceOnUse">
<stop stop-color="#C9D1DF"/>
<stop offset="0.504088" stop-color="#CCD2E0"/>
<stop offset="1" stop-color="#E3E6EF"/>
</linearGradient>
<linearGradient id="paint2_linear_3621_27397" x1="34.8906" y1="112" x2="257.228" y2="112" gradientUnits="userSpaceOnUse">
<stop stop-color="#EAEDF6"/>
<stop offset="1" stop-color="#F5F7FD"/>
</linearGradient>
<linearGradient id="paint3_linear_3621_27397" x1="41.8906" y1="112" x2="250.332" y2="112" gradientUnits="userSpaceOnUse">
<stop stop-color="#C9D0DE"/>
<stop offset="1" stop-color="#E2E5EE"/>
</linearGradient>
<linearGradient id="paint4_linear_3621_27397" x1="62.8906" y1="123.5" x2="229.643" y2="123.5" gradientUnits="userSpaceOnUse">
<stop stop-color="#333D5E"/>
<stop offset="1" stop-color="#333D5E"/>
</linearGradient>
<linearGradient id="paint5_linear_3621_27397" x1="36.8906" y1="75.5" x2="256.891" y2="75.5" gradientUnits="userSpaceOnUse">
<stop stop-color="#38406C"/>
<stop offset="1" stop-color="#565E8B"/>
</linearGradient>
<linearGradient id="paint6_linear_3621_27397" x1="34.8906" y1="72" x2="257.228" y2="72" gradientUnits="userSpaceOnUse">
<stop stop-color="#424D74"/>
<stop offset="1" stop-color="#636F97"/>
</linearGradient>
<linearGradient id="paint7_linear_3621_27397" x1="58.9574" y1="70.5" x2="234.821" y2="70.5" gradientUnits="userSpaceOnUse">
<stop stop-color="#2459D8"/>
<stop offset="1" stop-color="#4278F7"/>
</linearGradient>
<linearGradient id="paint8_linear_3621_27397" x1="59.6651" y1="64.2215" x2="235.665" y2="64.2215" gradientUnits="userSpaceOnUse">
<stop stop-color="#339CF3"/>
<stop offset="1" stop-color="#3CB7FC"/>
</linearGradient>
<clipPath id="clip0_3621_27397">
<rect width="175" height="183" fill="white" transform="matrix(0.868239 0.496147 -0.868239 0.496147 158.891 0)"/>
</clipPath>
</defs>
</svg>
