<svg width="1437" height="173" viewBox="0 0 1437 173" fill="none" xmlns="http://www.w3.org/2000/svg">
<g opacity="0.5">
<path d="M0 131C0 131 109.706 144 180 144C250.294 144 289.706 122 360 122C430.294 122 469.706 138 540 138C610.294 138 649.706 100 720 100C790.294 100 829.706 71 900 71C970.294 71 1009.71 111 1080 111C1150.29 111 1189.71 71 1260 71C1330.29 71 1440 131 1440 131V173H0V131Z" fill="url(#paint0_linear_3621_26756)"/>
<path d="M0 131C0 131 109.706 144 180 144C250.294 144 289.706 122 360 122C430.294 122 469.706 138 540 138C610.294 138 649.706 100 720 100C790.294 100 829.706 71 900 71C970.294 71 1009.71 111 1080 111C1150.29 111 1189.71 71 1260 71C1330.29 71 1440 131 1440 131V173H0V131Z" fill="url(#paint1_linear_3621_26756)"/>
</g>
<g opacity="0.5">
<path d="M0 61C0 61 109.706 64 180 64C250.294 64 289.706 81 360 81C430.294 81 473.706 34 544 34C614.294 34 649.706 0 720 0C790.294 0 829.706 41 900 41C970.294 41 1009.71 11 1080 11C1150.29 11 1189.71 51 1260 51C1330.29 51 1440 1 1440 1V173H0V61Z" fill="url(#paint2_linear_3621_26756)"/>
<path d="M0 61C0 61 109.706 64 180 64C250.294 64 289.706 81 360 81C430.294 81 473.706 34 544 34C614.294 34 649.706 0 720 0C790.294 0 829.706 41 900 41C970.294 41 1009.71 11 1080 11C1150.29 11 1189.71 51 1260 51C1330.29 51 1440 1 1440 1V173H0V61Z" fill="url(#paint3_linear_3621_26756)"/>
</g>
<defs>
<linearGradient id="paint0_linear_3621_26756" x1="720" y1="41" x2="726" y2="209" gradientUnits="userSpaceOnUse">
<stop stop-color="white" stop-opacity="0.14"/>
<stop offset="1" stop-color="white" stop-opacity="0"/>
</linearGradient>
<linearGradient id="paint1_linear_3621_26756" x1="720" y1="41" x2="726" y2="209" gradientUnits="userSpaceOnUse">
<stop stop-color="white" stop-opacity="0.14"/>
<stop offset="1" stop-color="white" stop-opacity="0"/>
</linearGradient>
<linearGradient id="paint2_linear_3621_26756" x1="720" y1="-29" x2="726" y2="139" gradientUnits="userSpaceOnUse">
<stop stop-color="white" stop-opacity="0.14"/>
<stop offset="1" stop-color="white" stop-opacity="0"/>
</linearGradient>
<linearGradient id="paint3_linear_3621_26756" x1="720" y1="-29" x2="726" y2="139" gradientUnits="userSpaceOnUse">
<stop stop-color="white" stop-opacity="0.14"/>
<stop offset="1" stop-color="white" stop-opacity="0"/>
</linearGradient>
</defs>
</svg>
