<svg aria-hidden="true" style="position:absolute;width:0;height:0;overflow:hidden" xmlns="http://www.w3.org/2000/svg">

<symbol id="adv-1" viewBox="0 0 43 48">
<path fill-rule="evenodd" clip-rule="evenodd" d="M42.9366 3.83971C42.9253 3.80371 42.9253 3.76171 42.9095 3.72771C42.8891 3.68771 42.8529 3.65771 42.828 3.61971C42.7782 3.54571 42.7352 3.46971 42.6673 3.41171C42.6469 3.39371 42.6175 3.38571 42.5972 3.36971C42.5066 3.30171 42.4116 3.23771 42.2984 3.19771C42.2962 3.19571 42.2939 3.19371 42.2894 3.19371C30.2448 -1.04829 12.7597 -1.04829 0.715158 3.19371C0.710632 3.19171 0.708368 3.19571 0.703842 3.19571C0.590684 3.23571 0.495632 3.29971 0.405105 3.36771C0.384737 3.38371 0.355316 3.39371 0.334947 3.40971C0.267053 3.46971 0.221789 3.54571 0.174263 3.61771C0.149368 3.65571 0.110895 3.68771 0.0927895 3.72571C0.0746842 3.76171 0.0769474 3.80171 0.0633684 3.83971C0.0339474 3.92771 0.00226316 4.01571 0.00226316 4.10971C0.00226316 4.11371 0 4.11571 0 4.11971V22.8797C0 31.9477 5.5719 40.3217 14.5453 44.7337L20.9501 47.8737C21.1221 47.9577 21.3122 47.9997 21.5 47.9997C21.6878 47.9997 21.8779 47.9577 22.0499 47.8737L28.4569 44.7337C37.4281 40.3217 43 31.9477 43 22.8797V4.11971C43 4.11571 42.9977 4.11371 42.9977 4.10971C42.9977 4.01571 42.9661 3.92771 42.9366 3.83971ZM27.3548 42.9857L21.5 45.8557L15.6452 42.9857C7.39147 38.9277 2.26316 31.2217 2.26316 22.8797V4.83971C13.5631 1.08171 29.4369 1.08171 40.7368 4.83971V22.8797C40.7368 31.2217 35.6085 38.9277 27.3548 42.9857Z" fill="#4AA7F0"/>
<path fill-rule="evenodd" clip-rule="evenodd" d="M31.9609 14.3501L19.1763 27.5301L13.2514 22.2941C12.81 21.9041 12.0926 21.9041 11.6513 22.2941C11.21 22.6841 11.21 23.3181 11.6513 23.7081L18.4408 29.7081C18.6512 29.8941 18.9409 30.0001 19.2397 30.0001H19.2827C19.5972 29.9901 19.8937 29.8641 20.0974 29.6521L33.6764 15.6521C34.0837 15.2341 34.0294 14.6021 33.5541 14.2421C33.0834 13.8841 32.3682 13.9301 31.9609 14.3501Z" fill="#4AA7F0"/>
</symbol>

<symbol id="adv-2" viewBox="0 0 43 48">
<path fill-rule="evenodd" clip-rule="evenodd" d="M20.5652 44H5.4367C5.0497 42.838 4.02143 42 2.80435 42C1.25822 42 0 43.346 0 45C0 46.654 1.25822 48 2.80435 48C4.02143 48 5.0497 47.162 5.4367 46H37.5633C37.9503 47.162 38.9786 48 40.1957 48C41.7418 48 43 46.654 43 45C43 43.346 41.7418 42 40.1957 42C38.9786 42 37.9503 42.838 37.5633 44H22.4348V38H26.3459C26.7329 39.162 27.7612 40 28.9783 40C30.5244 40 31.7826 38.654 31.7826 37C31.7826 35.346 30.5244 34 28.9783 34C27.7612 34 26.7329 34.838 26.3459 36H22.4348V30H34.0186C38.9711 30 43 25.784 43 20.6C43 15.994 39.7208 12.066 35.4152 11.356C33.8354 4.734 28.0902 0 21.5 0C13.6104 0 7.18848 6.694 7.15296 14.934C3.20443 14.958 0 18.326 0 22.466C0 26.622 3.22687 30 7.19409 30H20.5652V36H16.6541C16.2671 34.838 15.2388 34 14.0217 34C12.4756 34 11.2174 35.346 11.2174 37C11.2174 38.654 12.4756 40 14.0217 40C15.2388 40 16.2671 39.162 16.6541 38H20.5652V44ZM2.80435 46C2.28835 46 1.86957 45.55 1.86957 45C1.86957 44.45 2.28835 44 2.80435 44C3.32035 44 3.73913 44.45 3.73913 45C3.73913 45.55 3.32035 46 2.80435 46ZM40.1957 44C40.7117 44 41.1304 44.45 41.1304 45C41.1304 45.55 40.7117 46 40.1957 46C39.6797 46 39.2609 45.55 39.2609 45C39.2609 44.45 39.6797 44 40.1957 44ZM28.9783 36C29.4943 36 29.913 36.45 29.913 37C29.913 37.55 29.4943 38 28.9783 38C28.4623 38 28.0435 37.55 28.0435 37C28.0435 36.45 28.4623 36 28.9783 36ZM1.86957 22.466C1.86957 19.416 4.257 16.932 7.19409 16.932C7.45957 16.932 7.71383 16.974 8.00361 17.022C8.28217 17.06 8.56822 16.95 8.77574 16.742C8.98326 16.534 9.08983 16.22 9.06739 15.916C9.04496 15.612 9.02252 15.308 9.02252 15C9.02252 7.832 14.62 2 21.5 2C27.4396 2 32.5865 6.402 33.7363 12.466C33.8186 12.904 34.1644 13.23 34.5813 13.262C38.2532 13.568 41.1304 16.79 41.1304 20.6C41.1304 24.68 37.9391 28 34.0186 28H7.19409C4.257 28 1.86957 25.518 1.86957 22.466ZM14.0217 38C13.5057 38 13.087 37.55 13.087 37C13.087 36.45 13.5057 36 14.0217 36C14.5377 36 14.9565 36.45 14.9565 37C14.9565 37.55 14.5377 38 14.0217 38Z" fill="#4AA7F0"/>
</symbol>

<symbol id="adv-3" viewBox="0 0 43 48">
<path fill-rule="evenodd" clip-rule="evenodd" d="M27.6429 43.8261C36.1108 43.8261 43 39.145 43 33.3913C43 28.7791 38.5434 24.9016 32.4251 23.5263C36.9001 21.7002 39.9286 18.4049 39.9286 14.6087C39.9286 8.85496 33.0394 4.17391 24.5714 4.17391H21.5V1.04348C21.5 0.467478 20.812 0 19.9643 0C19.1166 0 18.4286 0.467478 18.4286 1.04348V4.17391H15.3571V1.04348C15.3571 0.467478 14.6691 0 13.8214 0C12.9737 0 12.2857 0.467478 12.2857 1.04348V4.17391H1.53571C0.688 4.17391 0 4.64139 0 5.21739C0 5.79339 0.688 6.26087 1.53571 6.26087H6.14286V24V41.7391H1.53571C0.688 41.7391 0 42.2066 0 42.7826C0 43.3586 0.688 43.8261 1.53571 43.8261H12.2857V46.9565C12.2857 47.5325 12.9737 48 13.8214 48C14.6691 48 15.3571 47.5325 15.3571 46.9565V43.8261H18.4286V46.9565C18.4286 47.5325 19.1166 48 19.9643 48C20.812 48 21.5 47.5325 21.5 46.9565V43.8261H27.6429ZM36.8571 14.6087C36.8571 19.2125 31.347 22.9565 24.5714 22.9565H9.21429V6.26087H24.5714C31.347 6.26087 36.8571 10.0049 36.8571 14.6087ZM9.21429 25.0435H24.5714H27.6429C34.4184 25.0435 39.9286 28.7875 39.9286 33.3913C39.9286 37.9951 34.4184 41.7391 27.6429 41.7391H9.21429V25.0435Z" fill="#4AA7F0"/>
</symbol>

<symbol id="adv-4" viewBox="0 0 43 48">
<path fill-rule="evenodd" clip-rule="evenodd" d="M10.2809 26.4H20.5635V31.2H17.7592C17.2432 31.2 16.8244 31.7376 16.8244 32.4C16.8244 33.0624 17.2432 33.6 17.7592 33.6H25.2374C25.7534 33.6 26.1722 33.0624 26.1722 32.4C26.1722 31.7376 25.7534 31.2 25.2374 31.2H22.4331V26.4H32.7157C34.2618 26.4 35.52 24.7848 35.52 22.8V3.6C35.52 1.6152 34.2618 0 32.7157 0H10.2809C8.73478 0 7.47656 1.6152 7.47656 3.6V22.8C7.47656 24.7848 8.73478 26.4 10.2809 26.4ZM9.34613 3.6C9.34613 2.9376 9.76678 2.4 10.2809 2.4H32.7157C33.2298 2.4 33.6505 2.9376 33.6505 3.6V22.8C33.6505 23.4624 33.2298 24 32.7157 24H10.2809C9.76678 24 9.34613 23.4624 9.34613 22.8V3.6Z" fill="#4AA7F0"/>
<path fill-rule="evenodd" clip-rule="evenodd" d="M0.934783 43.2H16.9214C17.3552 45.936 19.2434 48 21.5 48C23.7566 48 25.6448 45.936 26.0786 43.2H42.0652C42.5812 43.2 43 42.6624 43 42C43 41.3376 42.5812 40.8 42.0652 40.8H26.0786C25.6448 38.064 23.7566 36 21.5 36C19.2434 36 17.3552 38.064 16.9214 40.8H0.934783C0.418783 40.8 0 41.3376 0 42C0 42.6624 0.418783 43.2 0.934783 43.2ZM21.5 38.4C23.0461 38.4 24.3043 40.0152 24.3043 42C24.3043 43.9848 23.0461 45.6 21.5 45.6C19.9539 45.6 18.6957 43.9848 18.6957 42C18.6957 40.0152 19.9539 38.4 21.5 38.4Z" fill="#4AA7F0"/>
</symbol>

<symbol id="adv-5" viewBox="0 0 43 48">
<path fill-rule="evenodd" clip-rule="evenodd" d="M31.3516 36C29.8699 36 28.6641 37.346 28.6641 39C28.6641 40.654 29.8699 42 31.3516 42C32.8333 42 34.0391 40.654 34.0391 39C34.0391 37.346 32.8333 36 31.3516 36ZM31.3516 40C30.8571 40 30.4557 39.55 30.4557 39C30.4557 38.45 30.8571 38 31.3516 38C31.8461 38 32.2474 38.45 32.2474 39C32.2474 39.55 31.8461 40 31.3516 40Z" fill="#4AA7F0"/>
<path fill-rule="evenodd" clip-rule="evenodd" d="M31.3542 0C27.2423 0 23.6285 2.398 21.5573 6H8.36708C7.138 6 6.05942 6.94 5.74587 8.284L0.048375 32.306C0.016125 32.44 0.01075 32.576 0.0286667 32.706C0.0179167 32.802 0 32.898 0 33V45C0 46.654 1.20579 48 2.6875 48H34.9375C36.4192 48 37.625 46.654 37.625 45V33C37.625 32.898 37.6071 32.802 37.5981 32.704C37.6143 32.574 37.6089 32.44 37.5784 32.306L35.8477 24.992C40.0437 23.024 43 18.39 43 13C43 5.832 37.7755 0 31.3542 0ZM35.8333 45C35.8333 45.55 35.432 46 34.9375 46H2.6875C2.193 46 1.79167 45.55 1.79167 45V33C1.79167 32.45 2.193 32 2.6875 32H34.9375C35.432 32 35.8333 32.45 35.8333 33V45ZM35.1865 30.028C35.1023 30.02 35.0217 30 34.9375 30H2.6875C2.60329 30 2.52267 30.02 2.44025 30.028L7.47842 8.792C7.58771 8.318 7.94604 8 8.36708 8H20.6077C20.029 9.54 19.7083 11.228 19.7083 13C19.7083 20.168 24.9328 26 31.3542 26C32.3163 26 33.2462 25.854 34.1402 25.608L35.1865 30.028ZM31.3542 24C25.92 24 21.5 19.064 21.5 13C21.5 6.936 25.92 2 31.3542 2C36.7883 2 41.2083 6.936 41.2083 13C41.2083 19.064 36.7883 24 31.3542 24Z" fill="#4AA7F0"/>
<path fill-rule="evenodd" clip-rule="evenodd" d="M36.7318 6.00005C36.2373 6.00005 35.8359 6.44805 35.8359 7.00005V8.23205L34.8667 7.20005C34.7789 7.13405 34.6893 7.07005 34.614 7.02005C34.5227 6.95805 34.4295 6.89605 34.3507 6.85005L33.2219 6.31405C33.1198 6.27805 33.0159 6.24605 32.9299 6.22205L31.6847 6.01005C31.4679 5.99405 31.2439 5.99405 31.0307 6.01005L29.7998 6.21805C29.6959 6.24605 29.5938 6.27805 29.4916 6.31405L28.3808 6.83805C28.2859 6.89405 28.1945 6.95405 28.1121 7.01005C28.0225 7.06805 27.9347 7.13405 27.8594 7.19005L27.3614 7.60405L25.9997 9.36405C25.9441 9.46405 25.8922 9.56605 25.851 9.65405C25.799 9.75805 25.7506 9.86205 25.7059 9.96805L25.1612 11.932C25.1451 12.052 25.1307 12.17 25.1218 12.282L25.0859 13L25.1182 13.708C25.1289 13.83 25.1415 13.948 25.1576 14.068L25.7023 16.032C25.7471 16.14 25.7954 16.242 25.8402 16.328C25.8904 16.434 25.9424 16.536 25.9943 16.628L26.3294 17.18L27.8469 18.8C27.9329 18.866 28.0225 18.93 28.1031 18.984C28.1945 19.046 28.2859 19.106 28.3629 19.15L29.4916 19.686C29.5938 19.722 29.6959 19.754 29.7855 19.778L31.0289 19.99C31.1364 19.998 31.2457 20 31.3568 20C31.4679 20 31.5754 19.998 31.6847 19.99L32.9137 19.782C33.0177 19.754 33.1216 19.722 33.2219 19.686L34.3381 19.16C34.4313 19.104 34.5244 19.042 34.5979 18.992C34.6893 18.932 34.7789 18.866 34.8595 18.806L35.7947 17.942L37.0095 16.032L37.5936 13.718C37.6455 13.17 37.289 12.676 36.7981 12.618C36.3018 12.556 35.8646 12.958 35.8127 13.506L35.7464 14.004L34.9437 15.996L33.29 17.512L31.3568 18L30.6777 17.944L28.8449 17.14L27.4133 15.372L26.8776 13L26.9672 11.996L27.7699 10.004L29.4182 8.49005L31.3568 8.00005L32.0358 8.05605L33.8651 8.85605L34.7502 10H33.1484C32.6539 10 32.2526 10.448 32.2526 11C32.2526 11.552 32.6539 12 33.1484 12H36.7318C37.2263 12 37.6276 11.552 37.6276 11V7.00005C37.6276 6.44805 37.2263 6.00005 36.7318 6.00005Z" fill="#4AA7F0"/>
</symbol>

<symbol id="adv-6" viewBox="0 0 43 47">
<path fill-rule="evenodd" clip-rule="evenodd" d="M28.0597 23.0439C28.5864 26.2931 31.6953 28.8049 35.475 28.8049C39.6245 28.8049 43 25.79 43 22.0837C43 18.3775 39.6245 15.3626 35.475 15.3626C31.6953 15.3626 28.5864 17.8744 28.0597 21.1236H23.65V10.5618C23.65 7.91558 21.2377 5.76098 18.275 5.76098H14.9404C14.4136 2.51179 11.3047 0 7.525 0C3.3755 0 0 3.01491 0 6.72114C0 10.4274 3.3755 13.4423 7.525 13.4423C11.3047 13.4423 14.4136 10.9305 14.9404 7.6813H18.275C20.0531 7.6813 21.5 8.97368 21.5 10.5618V35.526C21.5 38.1722 23.9123 40.3268 26.875 40.3268H28.0597C28.5864 43.576 31.6953 46.0878 35.475 46.0878C39.6245 46.0878 43 43.0729 43 39.3667C43 35.6604 39.6245 32.6455 35.475 32.6455C31.6953 32.6455 28.5864 35.1573 28.0597 38.4065H26.875C25.097 38.4065 23.65 37.1141 23.65 35.526V23.0439H28.0597ZM35.475 17.2829C38.4377 17.2829 40.85 19.4375 40.85 22.0837C40.85 24.73 38.4377 26.8846 35.475 26.8846C32.5123 26.8846 30.1 24.73 30.1 22.0837C30.1 19.4375 32.5123 17.2829 35.475 17.2829ZM7.525 11.522C4.5623 11.522 2.15 9.36735 2.15 6.72114C2.15 4.07493 4.5623 1.92033 7.525 1.92033C10.4877 1.92033 12.9 4.07493 12.9 6.72114C12.9 9.36735 10.4877 11.522 7.525 11.522ZM35.475 34.5659C38.4377 34.5659 40.85 36.7205 40.85 39.3667C40.85 42.0129 38.4377 44.1675 35.475 44.1675C32.5123 44.1675 30.1 42.0129 30.1 39.3667C30.1 36.7205 32.5123 34.5659 35.475 34.5659Z" fill="#4AA7F0"/>
</symbol>

<symbol id="accordion-arrow" viewBox="0 0 18 10">
<path d="M17.5546 1.32423L9.50097 9.21417L1.00109 0.88701" fill="none" stroke="black"/>
</symbol>


</svg>



