<svg width="259" height="230" viewBox="0 0 259 230" fill="none" xmlns="http://www.w3.org/2000/svg">
<path fill-rule="evenodd" clip-rule="evenodd" d="M252.877 108C250.919 114.733 247.661 121.155 243.309 126.883C240.669 130.373 237.618 133.604 234.204 136.489C233.11 137.417 231.977 138.292 230.812 139.127C226.079 142.505 220.8 145.119 215.23 147.117C210.472 148.82 205.501 150.078 200.472 150.988C199.765 151.118 199.036 151.229 198.302 151.329C192.309 152.14 185.541 152.086 179.147 152.839C173.772 153.468 168.659 154.654 164.48 157.398C163.965 157.739 163.47 158.097 162.999 158.473C157.372 162.962 154.964 169.9 153.084 176.727C152.24 179.788 151.507 182.826 150.637 185.61C149.279 189.97 147.759 194.329 145.847 198.512C143.265 204.164 139.955 209.487 135.306 214.034C135.114 214.222 134.921 214.411 134.72 214.592C130.619 218.452 125.778 221.449 120.53 223.752C115.102 226.131 109.243 227.765 103.332 228.828C102.527 228.975 101.716 229.11 100.904 229.233C95.1418 230.12 89.6561 230.003 84.2926 229.204C76.9075 228.105 69.7412 225.726 62.3947 222.935C61.8416 222.724 61.2815 222.512 60.7271 222.295C60.6241 222.254 60.5281 222.218 60.4251 222.177C51.5977 218.717 42.5443 214.563 34.1875 209.516C23.216 202.889 13.4285 194.729 6.86109 184.576C-0.130669 173.766 -1.75386 161.622 1.87756 150.93C3.84779 145.102 7.37619 139.708 12.4569 135.202C14.7678 133.14 17.4012 131.266 20.3566 129.621C22.6423 128.346 24.9924 127.147 27.3425 125.949C32.4169 123.34 37.4834 120.72 41.8167 117.289C42.8404 116.484 43.8198 115.632 44.7534 114.721C48.5837 110.991 51.3137 106.584 53.2775 101.831C56.0532 95.1277 57.3152 87.7309 57.9906 80.5515C58.1259 79.0827 58.2482 77.614 58.3583 76.1393C59.0981 66.4865 59.523 56.7161 62.5814 47.5509C62.9613 46.3994 63.3863 45.2655 63.8569 44.1375C64.8285 41.811 65.9875 39.5667 67.3145 37.4105C68.8076 34.9723 70.5145 32.6458 72.3882 30.425C75.1626 27.1173 78.3111 24.0563 81.6785 21.2363C82.9534 20.167 84.254 19.1212 85.5804 18.1048C90.043 14.6738 94.7748 11.5541 99.7648 8.91613C104.955 6.17245 110.421 3.9399 116.164 2.40649C119.995 1.37834 123.949 0.661579 128.024 0.309072C130.047 0.132818 132.068 0.0329411 134.09 0.00944058C141.211 -0.0963117 148.3 0.690955 155.253 2.14211C163.218 3.7989 171.009 6.31932 178.491 9.36264C183.294 11.3132 187.975 13.4811 192.495 15.7724C197.304 18.2106 201.992 20.9484 206.512 23.9271C216.556 30.5483 225.77 38.374 233.638 46.8871C246.503 60.8111 256.25 78.1956 254.899 96.855C254.629 100.615 253.945 104.352 252.877 108Z" fill="url(#paint0_linear_3623_27689)"/>
<path fill-rule="evenodd" clip-rule="evenodd" d="M75.321 53.4319C75.8013 54.4753 76.1973 55.5675 76.48 56.7126C76.8193 58.0874 76.9867 59.4592 77.0009 60.8128L81.2349 62.0901L77.0421 73.6594L72.9084 72.4115C71.2576 74.4819 69.1547 76.2603 66.6919 77.6092L67.639 81.4398L54.6116 84.1206L53.6645 80.2895C50.4291 79.9992 47.3482 79.038 44.6381 77.5217L41.3325 80.115L32.6242 70.8793L36.0116 68.2196C35.5963 67.2696 35.2531 66.2767 34.9988 65.248C34.6324 63.7639 34.4689 62.2804 34.4805 60.8222L30.1562 59.5168L34.3485 47.9475L38.7822 49.2835C40.3989 47.3271 42.4277 45.6468 44.7836 44.3519L43.7489 40.1676L56.7757 37.4868L57.8097 41.6711C60.9222 41.9513 63.8898 42.8502 66.5232 44.2644L70.058 41.4919L78.767 50.7276L75.321 53.4319ZM41.5653 63.7143C43.3262 70.8432 51.0894 75.3165 58.8975 73.7096C66.7102 72.1022 71.6133 65.0227 69.8517 57.8938C68.0894 50.7655 60.3308 46.291 52.5187 47.899C44.7106 49.5059 39.8036 56.586 41.5653 63.7143Z" fill="#4AA7F0"/>
<path fill-rule="evenodd" clip-rule="evenodd" d="M227.942 151.528C227.673 152.632 227.304 153.733 226.81 154.816C226.216 156.117 225.484 157.325 224.637 158.436L227.285 161.712L216.536 168.943L213.953 165.745C211.294 166.563 208.452 166.906 205.587 166.709L203.933 170.333L191.604 165.652L193.258 162.027C190.802 160.083 188.896 157.674 187.644 155.008L183.304 155.381L182.047 143.252L186.495 142.867C186.758 141.873 187.107 140.882 187.551 139.907C188.192 138.503 188.998 137.207 189.931 136.022L187.229 132.677L197.978 125.446L200.749 128.874C203.308 128.13 206.028 127.829 208.771 128.014L210.577 124.054L222.905 128.736L221.099 132.696C223.462 134.566 225.315 136.864 226.568 139.407L231.209 139.008L232.466 151.138L227.942 151.528ZM193.869 142.11C190.792 148.857 194.293 156.601 201.683 159.408C209.077 162.216 217.562 159.023 220.639 152.277C223.717 145.53 220.218 137.787 212.825 134.98C205.434 132.173 196.945 135.364 193.869 142.11Z" fill="#4AA7F0"/>
<path fill-rule="evenodd" clip-rule="evenodd" d="M43.5317 28.6612C43.7275 29.0872 43.8891 29.5325 44.0043 29.9996C44.1428 30.5607 44.211 31.12 44.2168 31.6722L45.9437 32.1928L44.2335 36.9117L42.5479 36.4029C41.8744 37.2477 41.0161 37.9727 40.0117 38.5232L40.398 40.0854L35.0842 41.1794L34.6979 39.6166C33.3786 39.4979 32.1211 39.106 31.0169 38.4874L29.668 39.5449L26.1157 35.7778L27.4975 34.6932C27.3281 34.3055 27.1878 33.9007 27.0841 33.4812C26.9354 32.8755 26.8684 32.2709 26.8729 31.6758L25.1094 31.1435L26.8195 26.4246L28.6281 26.9698C29.2868 26.1714 30.1148 25.4857 31.0755 24.9576L30.6537 23.2514L35.9669 22.1575L36.3887 23.8642C37.6584 23.9788 38.8688 24.3454 39.9434 24.9223L41.3851 23.7913L44.9373 27.5585L43.5317 28.6612ZM29.7633 32.856C30.4819 35.7636 33.6484 37.5884 36.833 36.9327C40.0195 36.2771 42.02 33.3894 41.3008 30.4818C40.5822 27.5742 37.4176 25.7488 34.2311 26.4051C31.0465 27.0602 29.0447 29.9484 29.7633 32.856Z" fill="#4AA7F0"/>
<path fill-rule="evenodd" clip-rule="evenodd" d="M194.903 205.215H83.9004C79.546 205.215 76.0156 201.994 76.0156 198.02V39.5125C76.0156 35.5391 79.546 32.3184 83.9004 32.3184H194.903C199.258 32.3184 202.788 35.5391 202.788 39.5125V198.02C202.788 201.994 199.258 205.215 194.903 205.215Z" fill="#292929"/>
<path fill-rule="evenodd" clip-rule="evenodd" d="M138.409 23.6744C136.981 23.6744 135.82 22.6157 135.82 21.3079C135.82 20.0048 136.981 18.9456 138.409 18.9456C139.837 18.9456 140.998 20.0048 140.998 21.3079C140.998 22.6157 139.837 23.6744 138.409 23.6744Z" fill="#3E245C"/>
<path fill-rule="evenodd" clip-rule="evenodd" d="M166.076 30.5121H164.915C164.915 28.3723 162.994 26.6239 160.649 26.6239H151.631C147.355 26.6239 143.889 23.4607 143.889 19.5585V19.391C143.889 18.0116 143.269 16.7619 142.28 15.8542C141.2 14.8737 139.677 14.2914 138.011 14.3989C135.108 14.5858 132.919 16.9029 132.919 19.5585C132.919 23.4607 129.452 26.6239 125.176 26.6239H116.159C114.983 26.6239 113.92 27.0598 113.15 27.7672C112.376 28.4699 111.897 29.444 111.897 30.5121H110.737C107.822 30.5121 105.438 32.6876 105.438 35.3473V35.352C105.438 38.0122 105.438 40.1878 105.438 40.1878H171.374V35.3473C171.374 32.6876 168.99 30.5121 166.076 30.5121Z" fill="#F8F8F8"/>
<path fill-rule="evenodd" clip-rule="evenodd" d="M84 194.615H194.477V43.6638H84V194.615Z" fill="white"/>
<path fill-rule="evenodd" clip-rule="evenodd" d="M151.116 106.945H95.3763C94.7955 106.945 94.3203 106.511 94.3203 105.981C94.3203 105.452 94.7955 105.017 95.3763 105.017H151.116C151.697 105.017 152.172 105.452 152.172 105.981C152.172 106.511 151.697 106.945 151.116 106.945Z" fill="#CCCCCC"/>
<path fill-rule="evenodd" clip-rule="evenodd" d="M111.18 110.653H95.3357C94.7775 110.653 94.3203 110.236 94.3203 109.726C94.3203 109.216 94.7775 108.799 95.3357 108.799H111.18C111.739 108.799 112.196 109.216 112.196 109.726C112.196 110.236 111.739 110.653 111.18 110.653Z" fill="#CCCCCC"/>
<path fill-rule="evenodd" clip-rule="evenodd" d="M148.471 110.653H116.539C115.981 110.653 115.523 110.236 115.523 109.726C115.523 109.216 115.981 108.799 116.539 108.799H148.471C149.03 108.799 149.487 109.216 149.487 109.726C149.487 110.236 149.03 110.653 148.471 110.653Z" fill="#CCCCCC"/>
<path fill-rule="evenodd" clip-rule="evenodd" d="M123.612 114.36H95.3357C94.7775 114.36 94.3203 113.943 94.3203 113.433V113.433C94.3203 112.923 94.7775 112.506 95.3357 112.506H123.612C124.17 112.506 124.627 112.923 124.627 113.433V113.433C124.627 113.943 124.17 114.36 123.612 114.36Z" fill="#CCCCCC"/>
<path fill-rule="evenodd" clip-rule="evenodd" d="M144.489 114.36H129.945C129.387 114.36 128.93 113.943 128.93 113.433V113.433C128.93 112.923 129.387 112.506 129.945 112.506H144.489C145.048 112.506 145.505 112.923 145.505 113.433V113.433C145.505 113.943 145.048 114.36 144.489 114.36Z" fill="#CCCCCC"/>
<path fill-rule="evenodd" clip-rule="evenodd" d="M111.18 101.496H95.3357C94.7775 101.496 94.3203 101.079 94.3203 100.569C94.3203 100.059 94.7775 99.6423 95.3357 99.6423H111.18C111.739 99.6423 112.196 100.059 112.196 100.569C112.196 101.079 111.739 101.496 111.18 101.496Z" fill="#B6B6B6"/>
<path fill-rule="evenodd" clip-rule="evenodd" d="M148.471 101.496H116.539C115.981 101.496 115.523 101.079 115.523 100.569C115.523 100.059 115.981 99.6423 116.539 99.6423H148.471C149.03 99.6423 149.487 100.059 149.487 100.569C149.487 101.079 149.03 101.496 148.471 101.496Z" fill="#B6B6B6"/>
<path fill-rule="evenodd" clip-rule="evenodd" d="M151.116 167.142H95.3763C94.7955 167.142 94.3203 166.708 94.3203 166.178C94.3203 165.648 94.7955 165.214 95.3763 165.214H151.116C151.697 165.214 152.172 165.648 152.172 166.178C152.172 166.708 151.697 167.142 151.116 167.142Z" fill="#CCCCCC"/>
<path fill-rule="evenodd" clip-rule="evenodd" d="M111.18 170.848H95.3357C94.7775 170.848 94.3203 170.431 94.3203 169.922C94.3203 169.412 94.7775 168.995 95.3357 168.995H111.18C111.739 168.995 112.196 169.412 112.196 169.922C112.196 170.431 111.739 170.848 111.18 170.848Z" fill="#CCCCCC"/>
<path fill-rule="evenodd" clip-rule="evenodd" d="M148.471 170.848H116.539C115.981 170.848 115.523 170.431 115.523 169.922C115.523 169.412 115.981 168.995 116.539 168.995H148.471C149.03 168.995 149.487 169.412 149.487 169.922C149.487 170.431 149.03 170.848 148.471 170.848Z" fill="#CCCCCC"/>
<path fill-rule="evenodd" clip-rule="evenodd" d="M123.612 174.555H95.3357C94.7775 174.555 94.3203 174.138 94.3203 173.629C94.3203 173.118 94.7775 172.701 95.3357 172.701H123.612C124.17 172.701 124.627 173.118 124.627 173.629C124.627 174.138 124.17 174.555 123.612 174.555Z" fill="#CCCCCC"/>
<path fill-rule="evenodd" clip-rule="evenodd" d="M144.489 174.555H129.945C129.387 174.555 128.93 174.138 128.93 173.629C128.93 173.118 129.387 172.701 129.945 172.701H144.489C145.048 172.701 145.505 173.118 145.505 173.629C145.505 174.138 145.048 174.555 144.489 174.555Z" fill="#CCCCCC"/>
<path fill-rule="evenodd" clip-rule="evenodd" d="M111.18 161.692H95.3357C94.7775 161.692 94.3203 161.275 94.3203 160.765C94.3203 160.256 94.7775 159.838 95.3357 159.838H111.18C111.739 159.838 112.196 160.256 112.196 160.765C112.196 161.275 111.739 161.692 111.18 161.692Z" fill="#B6B6B6"/>
<path fill-rule="evenodd" clip-rule="evenodd" d="M148.471 161.692H116.539C115.981 161.692 115.523 161.275 115.523 160.765C115.523 160.256 115.981 159.838 116.539 159.838H148.471C149.03 159.838 149.487 160.256 149.487 160.765C149.487 161.275 149.03 161.692 148.471 161.692Z" fill="#B6B6B6"/>
<path fill-rule="evenodd" clip-rule="evenodd" d="M151.116 137.079H95.3763C94.7955 137.079 94.3203 136.645 94.3203 136.115C94.3203 135.585 94.7955 135.152 95.3763 135.152H151.116C151.697 135.152 152.172 135.585 152.172 136.115C152.172 136.645 151.697 137.079 151.116 137.079Z" fill="#CCCCCC"/>
<path fill-rule="evenodd" clip-rule="evenodd" d="M111.18 140.786H95.3357C94.7775 140.786 94.3203 140.369 94.3203 139.859C94.3203 139.35 94.7775 138.933 95.3357 138.933H111.18C111.739 138.933 112.196 139.35 112.196 139.859C112.196 140.369 111.739 140.786 111.18 140.786Z" fill="#CCCCCC"/>
<path fill-rule="evenodd" clip-rule="evenodd" d="M148.471 140.786H116.539C115.981 140.786 115.523 140.369 115.523 139.859C115.523 139.35 115.981 138.933 116.539 138.933H148.471C149.03 138.933 149.487 139.35 149.487 139.859C149.487 140.369 149.03 140.786 148.471 140.786Z" fill="#CCCCCC"/>
<path fill-rule="evenodd" clip-rule="evenodd" d="M123.612 144.494H95.3357C94.7775 144.494 94.3203 144.077 94.3203 143.567C94.3203 143.057 94.7775 142.64 95.3357 142.64H123.612C124.17 142.64 124.627 143.057 124.627 143.567C124.627 144.077 124.17 144.494 123.612 144.494Z" fill="#CCCCCC"/>
<path fill-rule="evenodd" clip-rule="evenodd" d="M144.489 144.494H129.945C129.387 144.494 128.93 144.077 128.93 143.567C128.93 143.057 129.387 142.64 129.945 142.64H144.489C145.048 142.64 145.505 143.057 145.505 143.567C145.505 144.077 145.048 144.494 144.489 144.494Z" fill="#CCCCCC"/>
<path fill-rule="evenodd" clip-rule="evenodd" d="M148.469 131.964H132.625C132.067 131.964 131.609 131.547 131.609 131.037C131.609 130.527 132.067 130.11 132.625 130.11H148.469C149.028 130.11 149.485 130.527 149.485 131.037C149.485 131.547 149.028 131.964 148.469 131.964Z" fill="#B6B6B6"/>
<path fill-rule="evenodd" clip-rule="evenodd" d="M127.268 131.964H95.3357C94.7775 131.964 94.3203 131.547 94.3203 131.037C94.3203 130.527 94.7775 130.11 95.3357 130.11H127.268C127.827 130.11 128.284 130.527 128.284 131.037C128.284 131.547 127.827 131.964 127.268 131.964Z" fill="#B6B6B6"/>
<path fill-rule="evenodd" clip-rule="evenodd" d="M130.602 88.1341H151.891V68.708H130.602V88.1341Z" fill="#F8F8F8"/>
<path fill-rule="evenodd" clip-rule="evenodd" d="M151.888 87.6411V88.1341H131.023C132.135 84.5132 135.435 81.7272 139.537 81.0346C137.286 80.2884 135.672 78.3226 135.672 76.0066C135.672 73.0526 138.3 70.6538 141.539 70.6538C144.779 70.6538 147.408 73.0526 147.408 76.0066C147.408 78.3226 145.794 80.2884 143.543 81.0346C147.455 81.6955 150.639 84.2624 151.888 87.6411Z" fill="#B6B6B6"/>
<path fill-rule="evenodd" clip-rule="evenodd" d="M175.666 53.1804H95.4464C94.827 53.1804 94.3203 53.6428 94.3203 54.208C94.3203 54.7732 94.827 55.2355 95.4464 55.2355H175.666C176.285 55.2355 176.791 54.7732 176.791 54.208C176.791 53.6428 176.285 53.1804 175.666 53.1804Z" fill="#B6B6B6"/>
<path fill-rule="evenodd" clip-rule="evenodd" d="M147.623 57.7021H95.2333C94.7311 57.7021 94.3203 58.0764 94.3203 58.5347V58.9236C94.3203 59.3818 94.7311 59.7567 95.2333 59.7567H147.623C148.125 59.7567 148.536 59.3818 148.536 58.9236V58.5347C148.536 58.0764 148.125 57.7021 147.623 57.7021Z" fill="#B6B6B6"/>
<path fill-rule="evenodd" clip-rule="evenodd" d="M163.314 142.67L163.297 142.595L163.314 142.67Z" fill="#7E6CC0"/>
<path fill-rule="evenodd" clip-rule="evenodd" d="M174.37 140.442L182.934 133.721L182.953 133.709C181.916 132.61 180.661 131.735 179.257 131.13C179.096 131.059 178.935 130.995 178.774 130.93L178.749 130.918C178.62 130.871 178.491 130.824 178.362 130.777C178.285 130.748 178.201 130.718 178.124 130.701C177.989 130.654 177.854 130.613 177.718 130.578C177.545 130.525 177.364 130.478 177.184 130.437C177.01 130.395 176.836 130.354 176.656 130.325C176.109 130.219 175.549 130.149 174.988 130.125C174.782 130.113 174.576 130.107 174.37 130.107C171.26 130.107 168.427 131.277 166.38 133.151C166.122 133.385 165.878 133.632 165.646 133.885C165.414 134.138 165.202 134.402 164.989 134.678V134.684C164.79 134.954 164.596 135.242 164.423 135.53C164.242 135.824 164.088 136.129 163.94 136.435C163.798 136.746 163.669 137.057 163.56 137.381C163.18 138.485 163 139.666 163.058 140.888C163.064 141.041 163.077 141.194 163.09 141.341C163.096 141.447 163.109 141.552 163.128 141.658C163.135 141.746 163.148 141.834 163.161 141.922L163.186 142.075C163.199 142.134 163.206 142.198 163.218 142.257C163.24 142.371 163.271 142.482 163.297 142.594L163.314 142.669L163.297 142.595L163.314 142.669L163.315 142.673L163.314 142.669C163.358 142.851 163.408 143.031 163.463 143.209L163.472 143.234C163.506 143.347 163.545 143.458 163.584 143.569L163.585 143.573L163.593 143.592C164.699 146.742 167.449 149.259 170.9 150.271C170.745 150.224 170.591 150.171 170.436 150.118C170.693 150.209 170.95 150.282 171.207 150.353C171.109 150.326 171.01 150.304 170.913 150.276C171.035 150.312 171.157 150.347 171.286 150.376C171.428 150.418 171.569 150.453 171.711 150.482L171.769 150.494C171.917 150.523 172.072 150.559 172.226 150.582L172.374 150.612C172.452 150.623 172.535 150.635 172.613 150.647L172.709 150.659C172.825 150.676 172.947 150.688 173.063 150.7C173.166 150.712 173.269 150.723 173.372 150.729H173.392C173.553 150.747 173.714 150.753 173.875 150.759C174.042 150.77 174.209 150.77 174.37 150.77C177.171 150.77 179.747 149.824 181.73 148.262L181.743 148.273C182.914 147.357 183.854 146.241 184.511 145.001C184.608 144.825 184.704 144.643 184.788 144.46L184.801 144.437C184.852 144.319 184.904 144.202 184.955 144.084C185.039 143.879 185.116 143.673 185.187 143.462C185.239 143.309 185.29 143.162 185.329 143.009C185.374 142.862 185.413 142.71 185.445 142.557C185.567 142.051 185.638 141.535 185.67 141.006C185.683 140.818 185.689 140.63 185.689 140.442H174.37Z" fill="#B6B6B6"/>
<path fill-rule="evenodd" clip-rule="evenodd" d="M185.686 140.442C185.686 137.88 184.65 135.53 182.931 133.72L174.367 140.442H185.686Z" fill="#E8E8E8"/>
<path fill-rule="evenodd" clip-rule="evenodd" d="M168.146 98.8035C167.16 98.8035 166.359 99.5332 166.359 100.434V117.177H169.932V100.434C169.932 99.5332 169.133 98.8035 168.146 98.8035Z" fill="#B6B6B6"/>
<path fill-rule="evenodd" clip-rule="evenodd" d="M172.521 102.55C171.535 102.55 170.734 103.279 170.734 104.18V117.177H174.307V104.18C174.307 103.279 173.508 102.55 172.521 102.55Z" fill="#B6B6B6"/>
<path fill-rule="evenodd" clip-rule="evenodd" d="M176.88 106.197C175.893 106.197 175.094 106.926 175.094 107.827V117.177H178.667V107.827C178.667 106.926 177.867 106.197 176.88 106.197Z" fill="#B6B6B6"/>
<path fill-rule="evenodd" clip-rule="evenodd" d="M181.647 108.889C180.659 108.889 179.859 109.619 179.859 110.52V117.177H183.433V110.52C183.433 109.619 182.633 108.889 181.647 108.889Z" fill="#B6B6B6"/>
<path fill-rule="evenodd" clip-rule="evenodd" d="M184.332 118.636H164.409C163.82 118.636 163.344 118.202 163.344 117.665C163.344 117.129 163.82 116.693 164.409 116.693H184.332C184.92 116.693 185.396 117.129 185.396 117.665C185.396 118.202 184.92 118.636 184.332 118.636Z" fill="#B6B6B6"/>
<path fill-rule="evenodd" clip-rule="evenodd" d="M95.5703 88.476H117.235V68.708H95.5703V88.476Z" fill="#F8F8F8"/>
<path fill-rule="evenodd" clip-rule="evenodd" d="M94.9916 78.255C94.1114 79.0305 94.0831 80.3084 94.9285 81.115L101.316 87.2116C102.134 87.993 103.514 87.9536 104.277 87.1276L118.039 72.2301C118.77 71.4387 118.573 70.2419 117.618 69.6826C116.837 69.2238 115.805 69.3559 115.192 69.9928L102.848 82.8065L98.142 78.3126C97.2908 77.4995 95.8776 77.4736 94.9916 78.255Z" fill="#B6B6B6"/>
<path fill-rule="evenodd" clip-rule="evenodd" d="M163.531 88.476H185.195V68.708H163.531V88.476Z" fill="#F8F8F8"/>
<path fill-rule="evenodd" clip-rule="evenodd" d="M162.959 78.255C162.08 79.0305 162.052 80.3084 162.898 81.115L169.284 87.2116C170.103 87.993 171.483 87.9536 172.247 87.1276L186.007 72.2301C186.738 71.4387 186.54 70.2419 185.587 69.6826C184.805 69.2238 183.773 69.3559 183.16 69.9928L170.817 82.8065L166.111 78.3126C165.259 77.4995 163.846 77.4736 162.959 78.255Z" fill="#B6B6B6"/>
<path fill-rule="evenodd" clip-rule="evenodd" d="M174.372 166.995L185.03 163.047C183.994 160.719 182.08 158.808 179.632 157.658L174.367 166.996L174.372 166.995Z" fill="#E8E8E8"/>
<path fill-rule="evenodd" clip-rule="evenodd" d="M185.33 163.792C185.285 163.662 185.234 163.533 185.182 163.404C185.135 163.284 185.098 163.162 185.044 163.043L185.033 163.047L174.375 166.995L174.369 166.996H174.37L179.635 157.658L179.642 157.644C179.494 157.575 179.34 157.522 179.189 157.459C179.021 157.389 178.854 157.316 178.682 157.253C178.5 157.186 178.315 157.128 178.129 157.069C177.93 157.007 177.732 156.945 177.53 156.893C177.346 156.845 177.16 156.805 176.974 156.765C176.779 156.724 176.583 156.686 176.386 156.654C176.177 156.62 175.966 156.593 175.755 156.569C175.596 156.552 175.437 156.538 175.278 156.526C175.019 156.508 174.761 156.496 174.502 156.494C174.411 156.493 174.321 156.495 174.23 156.495C172.805 156.511 171.378 156.75 170.03 157.25C168.672 157.754 167.483 158.48 166.474 159.355C166.415 159.405 166.352 159.452 166.294 159.504C166.193 159.596 166.099 159.694 166.002 159.788C164.109 161.634 162.991 164.054 162.87 166.579C162.864 166.696 162.853 166.812 162.852 166.929C162.85 167.021 162.86 167.115 162.862 167.207C162.884 168.461 163.142 169.727 163.687 170.951C164.215 172.139 164.97 173.184 165.875 174.079C165.979 174.182 166.076 174.29 166.184 174.389L166.336 174.519C168.39 176.329 171.131 177.392 173.983 177.491C174.081 177.495 174.179 177.502 174.278 177.504C174.398 177.505 174.517 177.495 174.637 177.493C175.998 177.47 177.373 177.236 178.702 176.744C180.044 176.246 181.22 175.531 182.22 174.671C182.295 174.607 182.374 174.548 182.446 174.483C182.533 174.404 182.614 174.319 182.698 174.238C183.656 173.312 184.426 172.244 184.964 171.083C186.008 168.829 186.193 166.249 185.33 163.792Z" fill="#B6B6B6"/>
<path fill-rule="evenodd" clip-rule="evenodd" d="M248.966 182.984C245.052 185.268 239.847 184.225 237.343 180.652C234.838 177.079 235.983 172.33 239.898 170.046C243.815 167.761 249.018 168.804 251.522 172.377C254.027 175.951 252.882 180.699 248.966 182.984ZM254.892 170.536C254.49 169.962 254.038 169.437 253.549 168.955L254.845 166.857L248.093 163.385L246.764 165.535C245.02 165.239 243.206 165.283 241.447 165.69L239.977 163.593L233.446 167.403L234.916 169.501C233.911 170.632 233.167 171.916 232.709 173.275L230 173.344L230.214 180.415L232.857 180.347C233.167 181.145 233.577 181.926 234.099 182.67C234.46 183.185 234.862 183.666 235.294 184.109L234.022 186.171L240.773 189.643L242.017 187.632C243.823 187.971 245.713 187.941 247.542 187.516L248.888 189.436L255.418 185.626L254.072 183.705C255.124 182.525 255.888 181.176 256.341 179.748L258.867 179.684L258.651 172.614L256.064 172.681C255.763 171.944 255.375 171.225 254.892 170.536Z" fill="#4AA7F0"/>
<defs>
<linearGradient id="paint0_linear_3623_27689" x1="187.5" y1="15.789" x2="36.4079" y2="250.241" gradientUnits="userSpaceOnUse">
<stop stop-color="#B5B5B5" stop-opacity="0.29"/>
<stop offset="1" stop-color="#EEECFE" stop-opacity="0"/>
</linearGradient>
</defs>
</svg>
