<svg width="1437" height="227" viewBox="0 0 1437 227" fill="none" xmlns="http://www.w3.org/2000/svg">
<g opacity="0.5">
<path d="M0 48.659C0 48.659 109.706 51.052 180 51.052C250.294 51.052 289.706 64.6127 360 64.6127C430.294 64.6127 473.706 27.1214 544 27.1214C614.294 27.1214 649.706 0 720 0C790.294 0 829.706 32.7052 900 32.7052C970.294 32.7052 1009.71 8.77457 1080 8.77457C1150.29 8.77457 1189.71 40.6821 1260 40.6821C1330.29 40.6821 1440 0.797688 1440 0.797688V138H0V48.659Z" fill="url(#paint0_linear_3669_23857)"/>
<path d="M0 48.659C0 48.659 109.706 51.052 180 51.052C250.294 51.052 289.706 64.6127 360 64.6127C430.294 64.6127 473.706 27.1214 544 27.1214C614.294 27.1214 649.706 0 720 0C790.294 0 829.706 32.7052 900 32.7052C970.294 32.7052 1009.71 8.77457 1080 8.77457C1150.29 8.77457 1189.71 40.6821 1260 40.6821C1330.29 40.6821 1440 0.797688 1440 0.797688V138H0V48.659Z" fill="url(#paint1_linear_3669_23857)"/>
</g>
<g opacity="0.5">
<path d="M0 137.659C0 137.659 109.706 140.052 180 140.052C250.294 140.052 289.706 153.613 360 153.613C430.294 153.613 473.706 116.121 544 116.121C614.294 116.121 649.706 89 720 89C790.294 89 829.706 121.705 900 121.705C970.294 121.705 1009.71 97.7746 1080 97.7746C1150.29 97.7746 1189.71 129.682 1260 129.682C1330.29 129.682 1440 89.7977 1440 89.7977V227H0V137.659Z" fill="url(#paint2_linear_3669_23857)"/>
<path d="M0 137.659C0 137.659 109.706 140.052 180 140.052C250.294 140.052 289.706 153.613 360 153.613C430.294 153.613 473.706 116.121 544 116.121C614.294 116.121 649.706 89 720 89C790.294 89 829.706 121.705 900 121.705C970.294 121.705 1009.71 97.7746 1080 97.7746C1150.29 97.7746 1189.71 129.682 1260 129.682C1330.29 129.682 1440 89.7977 1440 89.7977V227H0V137.659Z" fill="url(#paint3_linear_3669_23857)"/>
</g>
<defs>
<linearGradient id="paint0_linear_3669_23857" x1="720" y1="-23.1329" x2="723.82" y2="110.941" gradientUnits="userSpaceOnUse">
<stop stop-color="white" stop-opacity="0.14"/>
<stop offset="1" stop-color="white" stop-opacity="0"/>
</linearGradient>
<linearGradient id="paint1_linear_3669_23857" x1="720" y1="-23.1329" x2="723.82" y2="110.941" gradientUnits="userSpaceOnUse">
<stop stop-color="white" stop-opacity="0.14"/>
<stop offset="1" stop-color="white" stop-opacity="0"/>
</linearGradient>
<linearGradient id="paint2_linear_3669_23857" x1="720" y1="65.8671" x2="723.82" y2="199.941" gradientUnits="userSpaceOnUse">
<stop stop-color="white" stop-opacity="0.14"/>
<stop offset="1" stop-color="white" stop-opacity="0"/>
</linearGradient>
<linearGradient id="paint3_linear_3669_23857" x1="720" y1="65.8671" x2="723.82" y2="199.941" gradientUnits="userSpaceOnUse">
<stop stop-color="white" stop-opacity="0.14"/>
<stop offset="1" stop-color="white" stop-opacity="0"/>
</linearGradient>
</defs>
</svg>
