<svg width="293" height="249" viewBox="0 0 293 249" fill="none" xmlns="http://www.w3.org/2000/svg">
<g clip-path="url(#clip0_1553_7949)">
<path d="M145.916 121.425C148.433 119.93 151.567 119.93 154.084 121.425L259.082 183.767C260.392 184.545 260.386 186.444 259.07 187.213L154.039 248.638C151.544 250.097 148.456 250.097 145.961 248.638L40.9298 187.213C39.6144 186.444 39.6081 184.545 40.9183 183.767L145.916 121.425Z" fill="url(#paint0_diamond_1553_7949)" fill-opacity="0.05"/>
<path d="M147.452 75.8554C149.105 75.3004 150.893 75.3004 152.546 75.8554L260 111.943L260 142.29C260 143.004 259.619 143.664 259.001 144.022L154.001 204.688C151.525 206.118 148.473 206.118 145.997 204.688L40.9995 144.024C40.381 143.666 40 143.006 40 142.292L40 111.943L147.452 75.8554Z" fill="url(#paint1_linear_1553_7949)"/>
<path d="M145.916 48.4251C148.433 46.9302 151.567 46.9302 154.084 48.4251L259.082 110.767C260.392 111.545 260.386 113.444 259.07 114.213L154.039 175.638C151.544 177.097 148.456 177.097 145.961 175.638L40.9298 114.213C39.6144 113.444 39.6081 111.545 40.9183 110.767L145.916 48.4251Z" fill="url(#paint2_linear_1553_7949)"/>
<path d="M145.91 52.4336C148.43 50.9339 151.57 50.9339 154.09 52.4336L252.089 110.738C253.397 111.516 253.391 113.413 252.078 114.182L154.045 171.63C151.547 173.094 148.453 173.094 145.955 171.63L47.9223 114.182C46.609 113.413 46.6027 111.516 47.9109 110.738L145.91 52.4336Z" fill="url(#paint3_linear_1553_7949)"/>
<path d="M145.916 76.4251C148.433 74.9302 151.567 74.9302 154.084 76.4251L234 123.875L154.039 170.638C151.544 172.097 148.456 172.097 145.961 170.638L66 123.875L145.916 76.4251Z" fill="url(#paint4_linear_1553_7949)"/>
<path d="M145.884 9.46887C148.417 7.94921 151.582 7.94939 154.115 9.46933L260 73.0012L260 77.7955C260 78.5025 259.627 79.1569 259.018 79.5169L154.041 141.61C151.546 143.085 148.448 143.096 145.942 141.637L40.9935 80.5152C40.3783 80.157 40 79.4988 40 78.7869L40 72.984L145.884 9.46887Z" fill="url(#paint5_linear_1553_7949)"/>
<path d="M145.916 8.42506C148.433 6.93017 151.567 6.93018 154.084 8.42506L259.082 70.7672C260.392 71.5452 260.386 73.4441 259.07 74.2134L154.039 135.638C151.544 137.097 148.456 137.097 145.961 135.638L40.9298 74.2134C39.6144 73.4441 39.6081 71.5452 40.9183 70.7672L145.916 8.42506Z" fill="url(#paint6_linear_1553_7949)"/>
<path d="M146.139 21.4903C148.67 19.9579 151.841 19.9479 154.382 21.4644L237.122 70.8464C238.422 71.6223 238.422 73.5056 237.121 74.2813L152.816 124.573C150.307 126.07 147.182 126.08 144.663 124.599L61.8901 75.9403C60.5846 75.1729 60.5725 73.2894 61.8679 72.5052L146.139 21.4903Z" fill="#333D5E"/>
<path d="M146.895 20.1122C149.284 18.7961 152.179 18.7881 154.576 20.0909L236 64.3559L236 70.873C236 71.582 235.625 72.238 235.014 72.5972L153.29 120.635C150.804 122.097 147.724 122.107 145.229 120.663L64.9982 74.2291C64.3804 73.8715 64 73.2118 64 72.4981L64 65.773L146.895 20.1122Z" fill="url(#paint7_linear_1553_7949)"/>
<path d="M146.619 15.4896C149.15 13.9576 152.32 13.9476 154.86 15.4638L235.121 63.3584C236.422 64.1344 236.421 66.0178 235.121 66.7935L153.336 115.574C150.828 117.07 147.703 117.08 145.185 115.6L64.8906 68.4059C63.5851 67.6385 63.5729 65.7548 64.8685 64.9706L146.619 15.4896Z" fill="url(#paint8_linear_1553_7949)"/>
<g clip-path="url(#clip1_1553_7949)">
<line x1="1" y1="-1" x2="19.9945" y2="-1" transform="matrix(-0.010406 -1.01666 0.862803 0.472183 136.855 194.821)" stroke="#9098B0" stroke-opacity="0.9" stroke-width="2" stroke-linecap="round"/>
<line x1="1" y1="-1" x2="19.9945" y2="-1" transform="matrix(-0.010406 -1.01666 0.862803 0.472183 129.092 190.268)" stroke="#9098B0" stroke-opacity="0.9" stroke-width="2" stroke-linecap="round"/>
<line x1="1" y1="-1" x2="19.9945" y2="-1" transform="matrix(-0.010406 -1.01666 0.862803 0.472183 121.311 186.716)" stroke="#9098B0" stroke-opacity="0.9" stroke-width="2" stroke-linecap="round"/>
<line x1="1" y1="-1" x2="19.9945" y2="-1" transform="matrix(-0.010406 -1.01666 0.862803 0.472183 113.545 182.163)" stroke="#9098B0" stroke-opacity="0.9" stroke-width="2" stroke-linecap="round"/>
<rect width="5.00826" height="4.00307" rx="1" transform="matrix(-0.862803 -0.472183 -0.010406 -1.01666 137.873 187.328)" fill="#737B96"/>
<rect width="5.00826" height="4.00307" rx="1" transform="matrix(-0.862803 -0.472183 -0.010406 -1.01666 130.109 182.776)" fill="#737B96"/>
<rect width="5.00826" height="4.00307" rx="1" transform="matrix(-0.862803 -0.472183 -0.010406 -1.01666 122.346 178.223)" fill="#737B96"/>
<rect width="5.00826" height="4.00307" rx="1" transform="matrix(-0.862803 -0.472183 -0.010406 -1.01666 114.562 174.671)" fill="#737B96"/>
<line x1="0.5" y1="-0.5" x2="2.49539" y2="-0.5" transform="matrix(-0.862803 -0.472183 -0.0104059 -1.01666 137.07 183.823)" stroke="white" stroke-linecap="round"/>
<line x1="0.5" y1="-0.5" x2="2.49539" y2="-0.5" transform="matrix(-0.862803 -0.472183 -0.0104059 -1.01666 129.305 179.27)" stroke="white" stroke-linecap="round"/>
<line x1="0.5" y1="-0.5" x2="2.49539" y2="-0.5" transform="matrix(-0.862803 -0.472183 -0.0104059 -1.01666 121.523 175.718)" stroke="white" stroke-linecap="round"/>
<line x1="0.5" y1="-0.5" x2="2.49539" y2="-0.5" transform="matrix(-0.862803 -0.472183 -0.0104059 -1.01666 114.621 171.671)" stroke="white" stroke-linecap="round"/>
</g>
<circle r="11" transform="matrix(0.865468 -0.500965 -0.0197083 0.999806 243.303 139.487)" fill="#9098B0"/>
<line x1="1" y1="-1" x2="35" y2="-1" transform="matrix(0.871846 -0.489781 0.49154 0.870855 198 173)" stroke="#9098B0" stroke-width="2" stroke-linecap="round"/>
<line x1="1" y1="-1" x2="35" y2="-1" transform="matrix(0.867628 -0.497213 0.499016 0.866593 198 166)" stroke="#9098B0" stroke-width="2" stroke-linecap="round"/>
<line x1="1" y1="-1" x2="35" y2="-1" transform="matrix(0.866066 -0.49993 0.501748 0.865014 198 159)" stroke="#9098B0" stroke-width="2" stroke-linecap="round"/>
<path d="M243.789 130.491C242.766 131.083 241.749 131.902 240.795 132.902C239.841 133.901 238.969 135.061 238.229 136.315C237.49 137.569 236.896 138.893 236.483 140.212C236.07 141.53 235.846 142.817 235.823 143.998L238.407 142.503C238.422 141.713 238.572 140.853 238.848 139.972C239.124 139.091 239.521 138.206 240.015 137.368C240.509 136.53 241.092 135.755 241.729 135.087C242.367 134.419 243.047 133.872 243.73 133.476L243.789 130.491Z" fill="#DBDFEA"/>
<path d="M251.823 133.998C251.846 132.817 251.668 131.763 251.298 130.898C250.928 130.033 250.373 129.373 249.667 128.956C248.96 128.539 248.114 128.373 247.178 128.468C246.242 128.563 245.234 128.917 244.211 129.509L244.152 132.494C244.836 132.098 245.509 131.862 246.135 131.798C246.76 131.735 247.326 131.846 247.798 132.124C248.27 132.403 248.641 132.844 248.888 133.422C249.135 134 249.254 134.704 249.239 135.494L251.823 133.998Z" fill="#DBDFEA"/>
<path d="M247.901 135.999C247.914 135.343 247.815 134.757 247.61 134.277C247.404 133.796 247.096 133.429 246.704 133.198C246.311 132.966 245.841 132.874 245.321 132.927C244.801 132.979 244.241 133.176 243.673 133.505L243.626 135.853C243.928 135.678 244.225 135.574 244.501 135.546C244.776 135.518 245.026 135.567 245.234 135.69C245.442 135.813 245.605 136.007 245.714 136.262C245.823 136.517 245.876 136.827 245.869 137.175L247.901 135.999Z" fill="#DBDFEA"/>
<path d="M243.327 134.495C242.759 134.824 242.194 135.279 241.664 135.834C241.134 136.389 240.65 137.034 240.239 137.731C239.828 138.427 239.498 139.163 239.269 139.895C239.039 140.628 238.914 141.343 238.901 141.999L240.934 140.823C240.941 140.474 241.007 140.095 241.129 139.707C241.25 139.319 241.425 138.928 241.643 138.559C241.861 138.189 242.118 137.848 242.399 137.553C242.68 137.259 242.98 137.017 243.281 136.843L243.327 134.495Z" fill="#DBDFEA"/>
<path d="M239.099 143.001C239.086 143.657 239.185 144.243 239.39 144.723C239.596 145.204 239.904 145.571 240.296 145.802C240.689 146.034 241.159 146.126 241.679 146.073C242.199 146.021 242.759 145.824 243.327 145.495L243.374 143.147C243.072 143.322 242.775 143.426 242.499 143.454C242.224 143.482 241.974 143.433 241.766 143.31C241.558 143.187 241.395 142.993 241.286 142.738C241.177 142.483 241.124 142.173 241.131 141.825L239.099 143.001Z" fill="#DBDFEA"/>
<path d="M243.673 144.505C244.241 144.176 244.806 143.721 245.336 143.166C245.866 142.611 246.35 141.966 246.761 141.269C247.172 140.573 247.502 139.837 247.731 139.105C247.961 138.372 248.086 137.657 248.099 137.001L246.066 138.177C246.059 138.526 245.993 138.905 245.871 139.293C245.75 139.681 245.575 140.072 245.357 140.441C245.139 140.811 244.882 141.152 244.601 141.447C244.32 141.741 244.02 141.983 243.719 142.157L243.673 144.505Z" fill="#DBDFEA"/>
<path d="M244.211 148.509C245.234 147.917 246.251 147.098 247.205 146.098C248.159 145.099 249.031 143.939 249.771 142.685C250.51 141.431 251.104 140.107 251.517 138.788C251.93 137.47 252.154 136.183 252.177 135.002L249.593 136.497C249.578 137.287 249.428 138.147 249.152 139.028C248.876 139.909 248.479 140.794 247.985 141.632C247.491 142.47 246.908 143.245 246.271 143.913C245.633 144.581 244.953 145.128 244.27 145.524L244.211 148.509Z" fill="#DBDFEA"/>
<path d="M235.177 145.002C235.154 146.183 235.332 147.237 235.702 148.102C236.072 148.967 236.627 149.627 237.333 150.044C238.04 150.461 238.886 150.627 239.822 150.532C240.758 150.437 241.766 150.083 242.789 149.491L242.848 146.506C242.164 146.902 241.491 147.138 240.865 147.202C240.24 147.265 239.674 147.154 239.202 146.876C238.73 146.597 238.359 146.156 238.112 145.578C237.865 145 237.746 144.296 237.761 143.506L235.177 145.002Z" fill="#DBDFEA"/>
<g clip-path="url(#clip2_1553_7949)">
<path d="M98.0899 170.841L90.5291 166.474L90.7789 149.354L98.3398 153.721L102.675 164.532L98.0899 170.841Z" fill="#F0F2FA"/>
<path d="M95.6331 171.303L47.5229 143.537L47.794 122.37L95.8995 150.395L95.6331 171.303Z" fill="#37A7F7"/>
<path d="M60.3946 151.315L56.3133 148.962L52.7999 136.347L56.5854 127.796L60.6668 130.17L56.8813 138.705L60.3946 151.315Z" fill="#F0F2FA"/>
<ellipse rx="1.99971" ry="1.99994" transform="matrix(-0.859147 -0.496198 0.0131521 -1.00783 98.4801 161.88)" fill="#37A7F7"/>
</g>
<path fill-rule="evenodd" clip-rule="evenodd" d="M139.187 37.3738C140.92 36.3734 143.729 36.3734 145.462 37.3738L198.105 67.765C199.838 68.7654 199.838 70.3872 198.106 71.3876L159.978 93.3986C158.245 94.399 155.436 94.399 153.703 93.3986L101.059 63.0074C99.3264 62.007 99.3264 60.3852 101.059 59.3848L139.187 37.3738ZM139.762 40.985L191.85 71.0552L156.84 91.2663L104.753 61.1961L139.762 40.985ZM192.275 69.3299C192.982 69.7382 194.129 69.7382 194.836 69.3299C195.544 68.9215 195.544 68.2594 194.836 67.851C194.129 67.4426 192.982 67.4426 192.275 67.851C191.567 68.2594 191.567 68.9215 192.275 69.3299ZM188.861 65.8791C188.154 66.2875 187.007 66.2875 186.299 65.8791C185.592 65.4708 185.592 64.8086 186.299 64.4003C187.007 63.9919 188.154 63.9919 188.861 64.4003C189.568 64.8086 189.568 65.4708 188.861 65.8791ZM180.322 62.4285C181.03 62.8369 182.177 62.8369 182.884 62.4285C183.591 62.0201 183.591 61.358 182.884 60.9496C182.177 60.5412 181.03 60.5412 180.322 60.9496C179.615 61.358 179.615 62.0201 180.322 62.4285Z" fill="white"/>
<path d="M132.445 50.1384L134.379 51.2548L130.407 53.5477L130.485 53.593C130.965 53.4572 131.487 53.4019 132.053 53.4271C132.62 53.4522 133.173 53.6207 133.713 53.9324C134.418 54.3397 134.714 54.7822 134.601 55.2599C134.497 55.7427 134.009 56.2355 133.138 56.7383L128.839 59.2199L126.906 58.1035L131.047 55.7125C131.492 55.456 131.748 55.2273 131.818 55.0261C131.897 54.8199 131.757 54.6138 131.4 54.4076C131.243 54.3171 131.069 54.2417 130.877 54.1813C130.695 54.116 130.499 54.0732 130.29 54.0531C130.089 54.038 129.889 54.0481 129.688 54.0833C129.497 54.1134 129.318 54.1763 129.153 54.2718L124.711 56.8364L122.777 55.72L132.445 50.1384Z" fill="white"/>
<path d="M134.009 62.2045C133.339 61.8174 132.999 61.4251 132.99 61.0279C132.99 60.6357 133.317 60.251 133.97 59.8738L137.328 57.9354L136.361 57.3772L137.864 56.5098L138.347 56.7889C138.608 56.9397 138.848 57.0076 139.066 56.9925C139.292 56.9724 139.523 56.8945 139.758 56.7587L140.882 56.11L142.619 57.1132L140.764 58.1843L142.123 58.9687L140.62 59.8361L139.262 59.0517L135.407 61.2768L136.662 62.0009L135.159 62.8683L134.009 62.2045Z" fill="white"/>
<path d="M139.992 65.6586C139.322 65.2714 138.982 64.8792 138.973 64.4819C138.973 64.0897 139.3 63.705 139.953 63.3279L143.311 61.3894L142.344 60.8312L143.847 59.9638L144.33 60.2429C144.591 60.3938 144.831 60.4616 145.049 60.4466C145.275 60.4264 145.506 60.3485 145.741 60.2127L146.865 59.5641L148.603 60.5672L146.747 61.6383L148.106 62.4228L146.604 63.2902L145.245 62.5057L141.39 64.7308L142.645 65.4549L141.142 66.3223L139.992 65.6586Z" fill="white"/>
<path d="M150.495 63.8017L152.428 64.918L151.279 65.5817L151.344 65.6195C151.823 65.4535 152.354 65.3982 152.938 65.4535C153.53 65.5139 154.048 65.6723 154.493 65.9287C155.364 66.4316 155.716 66.9872 155.551 67.5956C155.385 68.2041 154.719 68.8452 153.552 69.519C152.385 70.1929 151.27 70.58 150.207 70.6806C149.153 70.7762 148.191 70.5725 147.32 70.0697C147.093 69.9389 146.915 69.7956 146.784 69.6397C146.645 69.4889 146.549 69.333 146.497 69.1721C146.462 69.0112 146.466 68.8528 146.51 68.6969C146.562 68.536 146.653 68.3876 146.784 68.2519L146.719 68.2142L142.956 70.3865L141.022 69.2701L150.495 63.8017ZM148.247 68.7949C148.613 69.0061 149.04 69.1067 149.528 69.0966C150.033 69.0866 150.503 68.9559 150.939 68.7044L152.128 68.018C152.563 67.7666 152.785 67.4976 152.794 67.211C152.82 66.9243 152.65 66.6754 152.285 66.4642C151.919 66.253 151.522 66.1298 151.096 66.0946C150.686 66.0594 150.325 66.1324 150.011 66.3134L147.986 67.4825C147.672 67.6635 147.542 67.8747 147.594 68.1161C147.664 68.3575 147.882 68.5837 148.247 68.7949Z" fill="white"/>
<path d="M153.74 73.7611C153.348 73.5348 153.152 73.311 153.152 73.0898C153.17 72.8685 153.331 72.6699 153.636 72.4939L153.897 72.343C154.202 72.167 154.541 72.0765 154.916 72.0715C155.308 72.0665 155.7 72.1771 156.092 72.4034C156.484 72.6296 156.671 72.8534 156.654 73.0747C156.654 73.2959 156.501 73.4945 156.196 73.6705L155.935 73.8214C155.63 73.9974 155.282 74.0879 154.89 74.0929C154.515 74.098 154.132 73.9873 153.74 73.7611ZM158.535 70.9929C158.143 70.7666 157.947 70.5428 157.947 70.3216C157.965 70.1003 158.126 69.9017 158.431 69.7257L158.692 69.5748C158.997 69.3989 159.336 69.3083 159.711 69.3033C160.103 69.2983 160.495 69.4089 160.887 69.6352C161.279 69.8615 161.466 70.0852 161.449 70.3065C161.449 70.5277 161.296 70.7264 160.991 70.9024L160.73 71.0532C160.425 71.2292 160.077 71.3197 159.685 71.3248C159.31 71.3298 158.927 71.2192 158.535 70.9929Z" fill="white"/>
<path d="M155.152 76.6882L170.687 72.2154L172.281 73.1356L156.746 77.6084L155.152 76.6882Z" fill="white"/>
<path d="M159.719 79.3246L175.254 74.8518L176.848 75.772L161.313 80.2449L159.719 79.3246Z" fill="white"/>
</g>
<defs>
<radialGradient id="paint0_diamond_1553_7949" cx="0" cy="0" r="1" gradientUnits="userSpaceOnUse" gradientTransform="translate(150 102.5) rotate(90) scale(148.5 270.1)">
<stop stop-opacity="0"/>
<stop offset="0.449103" stop-opacity="0"/>
<stop offset="0.654251" stop-opacity="0"/>
<stop offset="1"/>
</radialGradient>
<linearGradient id="paint1_linear_1553_7949" x1="38.0546" y1="141" x2="261.943" y2="141" gradientUnits="userSpaceOnUse">
<stop stop-color="#C9D1DF"/>
<stop offset="0.504088" stop-color="#CCD2E0"/>
<stop offset="1" stop-color="#E3E6EF"/>
</linearGradient>
<linearGradient id="paint2_linear_1553_7949" x1="38" y1="112" x2="260.337" y2="112" gradientUnits="userSpaceOnUse">
<stop stop-color="#EAEDF6"/>
<stop offset="1" stop-color="#F5F7FD"/>
</linearGradient>
<linearGradient id="paint3_linear_1553_7949" x1="45" y1="112" x2="253.441" y2="112" gradientUnits="userSpaceOnUse">
<stop stop-color="#C9D0DE"/>
<stop offset="1" stop-color="#E2E5EE"/>
</linearGradient>
<linearGradient id="paint4_linear_1553_7949" x1="66" y1="123.5" x2="232.753" y2="123.5" gradientUnits="userSpaceOnUse">
<stop stop-color="#333D5E"/>
<stop offset="1" stop-color="#333D5E"/>
</linearGradient>
<linearGradient id="paint5_linear_1553_7949" x1="40" y1="75.5" x2="260" y2="75.5" gradientUnits="userSpaceOnUse">
<stop stop-color="#38406C"/>
<stop offset="1" stop-color="#565E8B"/>
</linearGradient>
<linearGradient id="paint6_linear_1553_7949" x1="38" y1="72" x2="260.337" y2="72" gradientUnits="userSpaceOnUse">
<stop stop-color="#424D74"/>
<stop offset="1" stop-color="#636F97"/>
</linearGradient>
<linearGradient id="paint7_linear_1553_7949" x1="62.0668" y1="70.5" x2="237.93" y2="70.5" gradientUnits="userSpaceOnUse">
<stop stop-color="#2459D8"/>
<stop offset="1" stop-color="#4278F7"/>
</linearGradient>
<linearGradient id="paint8_linear_1553_7949" x1="62.7745" y1="64.2215" x2="238.774" y2="64.2215" gradientUnits="userSpaceOnUse">
<stop stop-color="#339CF3"/>
<stop offset="1" stop-color="#3CB7FC"/>
</linearGradient>
<clipPath id="clip0_1553_7949">
<rect width="293" height="249" fill="white"/>
</clipPath>
<clipPath id="clip1_1553_7949">
<rect width="158" height="52" fill="white" transform="matrix(0.862637 0.505823 -0.0193572 0.999813 15 90)"/>
</clipPath>
<clipPath id="clip2_1553_7949">
<rect width="95" height="49" fill="white" transform="matrix(-0.858823 -0.512273 0.027128 -0.999632 108 198)"/>
</clipPath>
</defs>
</svg>
