<svg width="293" height="249" viewBox="0 0 293 249" fill="none" xmlns="http://www.w3.org/2000/svg">
<g clip-path="url(#clip0_1553_9188)">
<path d="M145.476 119.438C147.999 117.936 151.141 117.936 153.663 119.438L258.321 181.769C259.628 182.547 259.622 184.442 258.31 185.212L153.618 246.626C151.118 248.092 148.021 248.092 145.522 246.626L40.8297 185.212C39.5174 184.442 39.5111 182.547 40.8183 181.769L145.476 119.438Z" fill="url(#paint0_diamond_1553_9188)" fill-opacity="0.05"/>
<path d="M147.015 74.8604C148.672 74.3022 150.466 74.3022 152.123 74.8603L259.235 110.943L259.235 141.292C259.235 142.005 258.855 142.665 258.238 143.022L153.58 203.675C151.099 205.113 148.039 205.113 145.558 203.675L40.9024 143.024C40.2852 142.667 39.9053 142.007 39.9053 141.294L39.9053 110.943L147.015 74.8604Z" fill="url(#paint1_linear_1553_9188)"/>
<path d="M145.476 47.438C147.999 45.9358 151.141 45.9358 153.663 47.438L258.321 109.769C259.628 110.547 259.622 112.442 258.31 113.212L153.618 174.626C151.118 176.092 148.021 176.092 145.522 174.626L40.8297 113.212C39.5174 112.442 39.5111 110.547 40.8183 109.769L145.476 47.438Z" fill="url(#paint2_linear_1553_9188)"/>
<path d="M145.47 51.4465C147.995 49.9395 151.144 49.9395 153.669 51.4465L251.35 109.739C252.655 110.518 252.649 112.411 251.338 113.181L153.623 170.617C151.121 172.088 148.018 172.088 145.516 170.617L47.8008 113.181C46.4905 112.411 46.4842 110.518 47.7894 109.739L145.47 51.4465Z" fill="url(#paint3_linear_1553_9188)"/>
<path d="M145.477 75.438C147.999 73.9358 151.141 73.9358 153.664 75.438L233.314 122.875L153.618 169.626C151.119 171.092 148.022 171.092 145.522 169.626L65.8262 122.875L145.477 75.438Z" fill="url(#paint4_linear_1553_9188)"/>
<path d="M145.445 8.48198C147.983 6.95491 151.157 6.95509 153.695 8.48244L259.235 72.0012L259.235 76.7972C259.235 77.5033 258.862 78.157 258.255 78.5173L153.62 140.597C151.121 142.08 148.013 142.09 145.503 140.624L40.8964 79.5156C40.2826 79.1571 39.9053 78.4996 39.9053 77.7887L39.9053 71.984L145.445 8.48198Z" fill="url(#paint5_linear_1553_9188)"/>
<path d="M145.476 7.43797C147.999 5.93577 151.141 5.93577 153.663 7.43797L258.321 69.7686C259.628 70.5471 259.622 72.4422 258.31 73.2121L153.618 134.626C151.118 136.092 148.021 136.092 145.522 134.626L40.8297 73.2121C39.5174 72.4422 39.5111 70.5471 40.8183 69.7686L145.476 7.43797Z" fill="url(#paint6_linear_1553_9188)"/>
<path d="M146.204 20.4872C148.734 18.9565 151.903 18.9466 154.443 20.4614L236.414 69.3501C237.715 70.1259 237.715 72.0101 236.414 72.7857L152.89 122.576C150.382 124.071 147.259 124.081 144.741 122.602L62.7364 74.4291C61.4303 73.6618 61.4181 71.7774 62.7142 70.9934L146.204 20.4872Z" fill="#333D5E"/>
<path d="M146.454 19.1236C148.847 17.8009 151.751 17.7929 154.152 19.1023L235.308 63.3559L235.308 69.8748C235.308 70.5828 234.933 71.238 234.324 71.5976L152.871 119.623C150.381 121.091 147.292 121.102 144.791 119.65L64.8279 73.2295C64.2114 72.8716 63.832 72.2127 63.832 71.4998L63.832 64.773L146.454 19.1236Z" fill="url(#paint7_linear_1553_9188)"/>
<path d="M146.177 14.5028C148.712 12.9633 151.892 12.9533 154.437 14.4769L234.434 62.3598C235.731 63.1363 235.731 65.0159 234.433 65.7921L152.917 114.561C150.404 116.064 147.27 116.074 144.747 114.587L64.7175 67.4045C63.4149 66.6366 63.4028 64.7568 64.6953 63.9721L146.177 14.5028Z" fill="#EA6C68"/>
<path d="M166.255 79.8772C176.924 81.4734 187.831 67.0554 176.139 61.5127C180.663 50.599 164.225 42.3028 158.295 48.2393C158.295 48.2393 147.727 38.3902 139.405 47.0155C128.898 35.7694 114.061 43.2812 118.181 52.8463" stroke="white" stroke-width="2" stroke-linecap="round"/>
<path d="M122.474 59.9824L137.762 55.5068L140.573 57.1306L120.514 62.5538L118.037 61.1227L127.518 49.5897L130.319 51.2077L122.474 59.9824ZM137.181 65.8608L131.696 69.0131L129.138 67.5353L143.898 59.0514L149.53 62.3049C151.175 63.2551 152.05 64.2553 152.156 65.3055C152.268 66.3595 151.618 67.2925 150.206 68.1044C148.76 68.9357 147.159 69.308 145.404 69.2211C143.656 69.1382 141.93 68.6042 140.224 67.619L137.181 65.8608ZM139.238 64.678L142.312 66.4537C143.222 66.9794 144.13 67.2581 145.034 67.2898C145.945 67.3177 146.806 67.0986 147.617 66.6324C148.415 66.174 148.807 65.6687 148.795 65.1164C148.789 64.5602 148.369 64.0329 147.533 63.5345L144.388 61.7179L139.238 64.678ZM155.538 78.4042C156.186 78.0313 156.457 77.6115 156.35 77.1447C156.25 76.6818 155.786 76.0047 154.958 75.1135C154.129 74.2222 153.584 73.4479 153.322 72.7904C152.826 71.5299 153.257 70.5092 154.615 69.7284C155.804 69.0447 157.266 68.7599 159.001 68.8739C160.742 68.9918 162.384 69.4967 163.928 70.3884C164.953 70.9803 165.677 71.6167 166.101 72.2977C166.524 72.9786 166.614 73.6534 166.369 74.3222C166.132 74.9872 165.587 75.5643 164.736 76.0538L162.188 74.5818C162.958 74.139 163.317 73.6531 163.264 73.1241C163.225 72.5951 162.757 72.0717 161.86 71.5537C161.024 71.0709 160.194 70.798 159.371 70.7352C158.555 70.6763 157.825 70.8314 157.183 71.2004C156.643 71.5112 156.439 71.9155 156.573 72.4135C156.714 72.9075 157.185 73.5846 157.986 74.4447C158.794 75.3009 159.326 76.0558 159.581 76.7094C159.843 77.3591 159.852 77.9406 159.608 78.4538C159.37 78.9631 158.873 79.4353 158.116 79.8704C156.886 80.5774 155.434 80.8681 153.761 80.7424C152.101 80.6168 150.465 80.0886 148.854 79.158C147.789 78.5427 147.004 77.8634 146.499 77.1202C146.008 76.377 145.861 75.6613 146.059 74.973C146.262 74.2886 146.827 73.6803 147.753 73.1482L150.312 74.626C149.474 75.1076 149.101 75.6402 149.194 76.2237C149.288 76.8072 149.85 77.3968 150.881 77.9926C151.771 78.5066 152.618 78.7892 153.421 78.8403C154.237 78.8914 154.943 78.7461 155.538 78.4042Z" fill="white"/>
<g clip-path="url(#clip1_1553_9188)">
<line x1="1" y1="-1" x2="19.9945" y2="-1" transform="matrix(-0.010406 -1.01666 0.862803 0.472183 136.855 192.821)" stroke="#9098B0" stroke-opacity="0.9" stroke-width="2" stroke-linecap="round"/>
<line x1="1" y1="-1" x2="19.9945" y2="-1" transform="matrix(-0.010406 -1.01666 0.862803 0.472183 129.092 188.268)" stroke="#9098B0" stroke-opacity="0.9" stroke-width="2" stroke-linecap="round"/>
<line x1="1" y1="-1" x2="19.9945" y2="-1" transform="matrix(-0.010406 -1.01666 0.862803 0.472183 121.309 184.716)" stroke="#9098B0" stroke-opacity="0.9" stroke-width="2" stroke-linecap="round"/>
<line x1="1" y1="-1" x2="19.9945" y2="-1" transform="matrix(-0.010406 -1.01666 0.862803 0.472183 113.545 180.163)" stroke="#9098B0" stroke-opacity="0.9" stroke-width="2" stroke-linecap="round"/>
<rect width="5.00826" height="4.00307" rx="1" transform="matrix(-0.862803 -0.472183 -0.010406 -1.01666 137.873 185.328)" fill="#737B96"/>
<rect width="5.00826" height="4.00307" rx="1" transform="matrix(-0.862803 -0.472183 -0.010406 -1.01666 130.109 180.776)" fill="#737B96"/>
<rect width="5.00826" height="4.00307" rx="1" transform="matrix(-0.862803 -0.472183 -0.010406 -1.01666 122.346 176.223)" fill="#737B96"/>
<rect width="5.00826" height="4.00307" rx="1" transform="matrix(-0.862803 -0.472183 -0.010406 -1.01666 114.562 172.671)" fill="#737B96"/>
<line x1="0.5" y1="-0.5" x2="2.49539" y2="-0.5" transform="matrix(-0.862803 -0.472183 -0.0104059 -1.01666 137.068 181.823)" stroke="white" stroke-linecap="round"/>
<line x1="0.5" y1="-0.5" x2="2.49539" y2="-0.5" transform="matrix(-0.862803 -0.472183 -0.0104059 -1.01666 129.305 177.27)" stroke="white" stroke-linecap="round"/>
<line x1="0.5" y1="-0.5" x2="2.49539" y2="-0.5" transform="matrix(-0.862803 -0.472183 -0.0104059 -1.01666 121.521 173.718)" stroke="white" stroke-linecap="round"/>
<line x1="0.5" y1="-0.5" x2="2.49539" y2="-0.5" transform="matrix(-0.862803 -0.472183 -0.0104059 -1.01666 114.62 169.671)" stroke="white" stroke-linecap="round"/>
</g>
<circle r="11" transform="matrix(0.865468 -0.500965 -0.0197083 0.999806 243.303 137.487)" fill="#9098B0"/>
<line x1="1" y1="-1" x2="35" y2="-1" transform="matrix(0.871846 -0.489781 0.49154 0.870855 198 171)" stroke="#9098B0" stroke-width="2" stroke-linecap="round"/>
<line x1="1" y1="-1" x2="35" y2="-1" transform="matrix(0.867628 -0.497213 0.499016 0.866593 198 164)" stroke="#9098B0" stroke-width="2" stroke-linecap="round"/>
<line x1="1" y1="-1" x2="35" y2="-1" transform="matrix(0.866066 -0.49993 0.501748 0.865014 198 157)" stroke="#9098B0" stroke-width="2" stroke-linecap="round"/>
<path d="M243.789 128.491C242.766 129.083 241.749 129.902 240.795 130.902C239.841 131.901 238.969 133.061 238.229 134.315C237.49 135.569 236.896 136.893 236.483 138.212C236.07 139.53 235.846 140.817 235.823 141.998L238.407 140.503C238.422 139.713 238.572 138.853 238.848 137.972C239.124 137.091 239.521 136.206 240.015 135.368C240.509 134.53 241.092 133.755 241.729 133.087C242.367 132.419 243.047 131.872 243.73 131.476L243.789 128.491Z" fill="#DBDFEA"/>
<path d="M251.823 131.998C251.846 130.817 251.668 129.763 251.298 128.898C250.928 128.033 250.373 127.373 249.667 126.956C248.96 126.539 248.114 126.373 247.178 126.468C246.242 126.563 245.234 126.917 244.211 127.509L244.152 130.494C244.836 130.098 245.509 129.862 246.135 129.798C246.76 129.735 247.326 129.846 247.798 130.124C248.27 130.403 248.641 130.844 248.888 131.422C249.135 132 249.254 132.704 249.239 133.494L251.823 131.998Z" fill="#DBDFEA"/>
<path d="M247.901 133.999C247.914 133.343 247.815 132.757 247.61 132.277C247.404 131.796 247.096 131.429 246.704 131.198C246.311 130.966 245.841 130.874 245.321 130.927C244.801 130.979 244.241 131.176 243.673 131.505L243.626 133.853C243.928 133.678 244.225 133.574 244.501 133.546C244.776 133.518 245.026 133.567 245.234 133.69C245.442 133.813 245.605 134.007 245.714 134.262C245.823 134.517 245.876 134.827 245.869 135.175L247.901 133.999Z" fill="#DBDFEA"/>
<path d="M243.327 132.495C242.759 132.824 242.194 133.279 241.664 133.834C241.134 134.389 240.65 135.034 240.239 135.731C239.828 136.427 239.498 137.163 239.269 137.895C239.039 138.628 238.914 139.343 238.901 139.999L240.934 138.823C240.941 138.474 241.007 138.095 241.129 137.707C241.25 137.319 241.425 136.928 241.643 136.559C241.861 136.189 242.118 135.848 242.399 135.553C242.68 135.259 242.98 135.017 243.281 134.843L243.327 132.495Z" fill="#DBDFEA"/>
<path d="M239.099 141.001C239.086 141.657 239.185 142.243 239.39 142.723C239.596 143.204 239.904 143.571 240.296 143.802C240.689 144.034 241.159 144.126 241.679 144.073C242.199 144.021 242.759 143.824 243.327 143.495L243.374 141.147C243.072 141.322 242.775 141.426 242.499 141.454C242.224 141.482 241.974 141.433 241.766 141.31C241.558 141.187 241.395 140.993 241.286 140.738C241.177 140.483 241.124 140.173 241.131 139.825L239.099 141.001Z" fill="#DBDFEA"/>
<path d="M243.673 142.505C244.241 142.176 244.806 141.721 245.336 141.166C245.866 140.611 246.35 139.966 246.761 139.269C247.172 138.573 247.502 137.837 247.731 137.105C247.961 136.372 248.086 135.657 248.099 135.001L246.066 136.177C246.059 136.526 245.993 136.905 245.871 137.293C245.75 137.681 245.575 138.072 245.357 138.441C245.139 138.811 244.882 139.152 244.601 139.447C244.32 139.741 244.02 139.983 243.719 140.157L243.673 142.505Z" fill="#DBDFEA"/>
<path d="M244.211 146.509C245.234 145.917 246.251 145.098 247.205 144.098C248.159 143.099 249.031 141.939 249.771 140.685C250.51 139.431 251.104 138.107 251.517 136.788C251.93 135.47 252.154 134.183 252.177 133.002L249.593 134.497C249.578 135.287 249.428 136.147 249.152 137.028C248.876 137.909 248.479 138.794 247.985 139.632C247.491 140.47 246.908 141.245 246.271 141.913C245.633 142.581 244.953 143.128 244.27 143.524L244.211 146.509Z" fill="#DBDFEA"/>
<path d="M235.177 143.002C235.154 144.183 235.332 145.237 235.702 146.102C236.072 146.967 236.627 147.627 237.333 148.044C238.04 148.461 238.886 148.627 239.822 148.532C240.758 148.437 241.766 148.083 242.789 147.491L242.848 144.506C242.164 144.902 241.491 145.138 240.865 145.202C240.24 145.265 239.674 145.154 239.202 144.876C238.73 144.597 238.359 144.156 238.112 143.578C237.865 143 237.746 142.296 237.761 141.506L235.177 143.002Z" fill="#DBDFEA"/>
<g clip-path="url(#clip2_1553_9188)">
<path d="M98.089 168.841L90.5281 164.474L90.7779 147.354L98.3388 151.721L102.674 162.532L98.089 168.841Z" fill="#F0F2FA"/>
<path d="M95.6331 169.303L47.5229 141.537L47.794 120.37L95.8995 148.395L95.6331 169.303Z" fill="#EA6C68"/>
<path d="M60.3936 149.315L56.3123 146.962L52.799 134.347L56.5844 125.796L60.6658 128.17L56.8803 136.705L60.3936 149.315Z" fill="#F0F2FA"/>
<path d="M67.2647 153.416L63.1833 151.061L59.6702 138.436L63.456 129.895L67.5376 132.28L63.7516 140.794L67.2647 153.416Z" fill="#F0F2FA"/>
<path d="M73.2765 157.001L69.1949 154.646L65.682 142.013L69.4684 133.481L73.55 135.859L69.7636 144.37L73.2765 157.001Z" fill="#F0F2FA"/>
<ellipse rx="1.99971" ry="1.99994" transform="matrix(-0.859147 -0.496198 0.0131521 -1.00783 98.4792 159.88)" fill="#EA6C68"/>
<path d="M89.9328 157.287L87.4286 157.4L86.9058 160.674L84.9234 156.86L82.1377 155.606L83.4167 153.136L82.2178 149.088L84.9908 151.375L87.0355 150.127L87.4702 154.01L89.9328 157.287Z" fill="#F0F2FA"/>
</g>
<rect x="40" y="113" width="7" height="16" fill="#C4C4C4"/>
</g>
<defs>
<radialGradient id="paint0_diamond_1553_9188" cx="0" cy="0" r="1" gradientUnits="userSpaceOnUse" gradientTransform="translate(149.57 100.5) rotate(90) scale(148.5 269.277)">
<stop stop-opacity="0"/>
<stop offset="0.449103" stop-opacity="0"/>
<stop offset="0.654251" stop-opacity="0"/>
<stop offset="1"/>
</radialGradient>
<linearGradient id="paint1_linear_1553_9188" x1="37.9658" y1="140" x2="261.172" y2="140" gradientUnits="userSpaceOnUse">
<stop stop-color="#C9D1DF"/>
<stop offset="0.504088" stop-color="#CCD2E0"/>
<stop offset="1" stop-color="#E3E6EF"/>
</linearGradient>
<linearGradient id="paint2_linear_1553_9188" x1="37.9111" y1="111" x2="259.571" y2="111" gradientUnits="userSpaceOnUse">
<stop stop-color="#EAEDF6"/>
<stop offset="1" stop-color="#F5F7FD"/>
</linearGradient>
<linearGradient id="paint3_linear_1553_9188" x1="44.8896" y1="111" x2="252.695" y2="111" gradientUnits="userSpaceOnUse">
<stop stop-color="#C9D0DE"/>
<stop offset="1" stop-color="#E2E5EE"/>
</linearGradient>
<linearGradient id="paint4_linear_1553_9188" x1="65.8262" y1="122.5" x2="232.071" y2="122.5" gradientUnits="userSpaceOnUse">
<stop stop-color="#333D5E"/>
<stop offset="1" stop-color="#333D5E"/>
</linearGradient>
<linearGradient id="paint5_linear_1553_9188" x1="39.9053" y1="74.5" x2="259.235" y2="74.5" gradientUnits="userSpaceOnUse">
<stop stop-color="#38406C"/>
<stop offset="1" stop-color="#565E8B"/>
</linearGradient>
<linearGradient id="paint6_linear_1553_9188" x1="37.9111" y1="71" x2="259.571" y2="71" gradientUnits="userSpaceOnUse">
<stop stop-color="#424D74"/>
<stop offset="1" stop-color="#636F97"/>
</linearGradient>
<linearGradient id="paint7_linear_1553_9188" x1="61.9047" y1="69.5" x2="237.232" y2="69.5" gradientUnits="userSpaceOnUse">
<stop stop-color="#9B4B47"/>
<stop offset="1" stop-color="#BB5A57"/>
</linearGradient>
<clipPath id="clip0_1553_9188">
<rect width="293" height="249" fill="white"/>
</clipPath>
<clipPath id="clip1_1553_9188">
<rect width="158" height="52" fill="white" transform="matrix(0.862637 0.505823 -0.0193572 0.999813 15 88)"/>
</clipPath>
<clipPath id="clip2_1553_9188">
<rect width="95" height="49" fill="white" transform="matrix(-0.858823 -0.512273 0.027128 -0.999632 108 196)"/>
</clipPath>
</defs>
</svg>
