<svg width="293" height="249" viewBox="0 0 293 249" fill="none" xmlns="http://www.w3.org/2000/svg">
<g clip-path="url(#clip0_1553_10361)">
<path d="M145.916 116.425C148.433 114.93 151.567 114.93 154.084 116.425L259.082 178.767C260.392 179.545 260.386 181.444 259.07 182.213L154.039 243.638C151.544 245.097 148.456 245.097 145.961 243.638L40.9298 182.213C39.6144 181.444 39.6081 179.545 40.9183 178.767L145.916 116.425Z" fill="url(#paint0_diamond_1553_10361)" fill-opacity="0.05"/>
<path d="M147.452 70.8554C149.105 70.3004 150.893 70.3004 152.546 70.8554L260 106.943L260 137.29C260 138.004 259.619 138.664 259.001 139.022L154.001 199.688C151.525 201.118 148.473 201.118 145.997 199.688L40.9995 139.024C40.381 138.666 40 138.006 40 137.292L40 106.943L147.452 70.8554Z" fill="url(#paint1_linear_1553_10361)"/>
<path d="M145.916 43.4251C148.433 41.9302 151.567 41.9302 154.084 43.4251L259.082 105.767C260.392 106.545 260.386 108.444 259.07 109.213L154.039 170.638C151.544 172.097 148.456 172.097 145.961 170.638L40.9298 109.213C39.6144 108.444 39.6081 106.545 40.9183 105.767L145.916 43.4251Z" fill="url(#paint2_linear_1553_10361)"/>
<path d="M145.91 47.4336C148.43 45.9339 151.57 45.9339 154.09 47.4336L252.089 105.738C253.397 106.516 253.391 108.413 252.078 109.182L154.045 166.63C151.547 168.094 148.453 168.094 145.955 166.63L47.9223 109.182C46.609 108.413 46.6027 106.516 47.9109 105.738L145.91 47.4336Z" fill="url(#paint3_linear_1553_10361)"/>
<path d="M145.916 71.4251C148.433 69.9302 151.567 69.9302 154.084 71.4251L234 118.875L154.039 165.638C151.544 167.097 148.456 167.097 145.961 165.638L66 118.875L145.916 71.4251Z" fill="url(#paint4_linear_1553_10361)"/>
<path d="M145.884 4.46887C148.417 2.94921 151.582 2.94939 154.115 4.46933L260 68.0012L260 72.7955C260 73.5025 259.627 74.1569 259.018 74.5169L154.041 136.61C151.546 138.085 148.448 138.096 145.942 136.637L40.9935 75.5152C40.3783 75.157 40 74.4988 40 73.7869L40 67.984L145.884 4.46887Z" fill="url(#paint5_linear_1553_10361)"/>
<path d="M145.916 3.42506C148.433 1.93017 151.567 1.93018 154.084 3.42506L259.082 65.7672C260.392 66.5452 260.386 68.4441 259.07 69.2134L154.039 130.638C151.544 132.097 148.456 132.097 145.961 130.638L40.9298 69.2134C39.6144 68.4441 39.6081 66.5452 40.9183 65.7672L145.916 3.42506Z" fill="url(#paint6_linear_1553_10361)"/>
<path d="M146.726 10.4781C149.254 8.95257 152.415 8.94267 154.952 10.4524L247.112 65.3007C248.415 66.0762 248.414 67.963 247.111 68.7382L153.229 124.585C150.724 126.075 147.607 126.085 145.093 124.611L52.9004 70.5679C51.5921 69.801 51.5799 67.914 52.8782 67.1303L146.726 10.4781Z" fill="#333D5E"/>
<path d="M72.3461 56.3675C73.4641 55.9254 74.7204 56.0007 75.7709 56.5728L167.244 106.395L167.217 110.716C167.213 111.412 166.842 112.056 166.24 112.417L150.751 121.682C149.491 122.436 147.919 122.451 146.652 121.721L56.4284 69.7695C55.814 69.4157 55.4364 68.7653 55.4358 68.0598L55.4321 63.0568L72.3461 56.3675Z" fill="url(#paint7_linear_1553_10361)"/>
<path d="M72.0051 51.9828C73.2546 51.2843 74.7813 51.2947 76.0133 52.0099L166.485 104.536C167.819 105.31 167.796 107.23 166.443 107.986L151.249 116.48C150 117.178 148.473 117.168 147.241 116.453L56.769 63.9267C55.4351 63.1522 55.4588 61.2326 56.8116 60.4764L72.0051 51.9828Z" fill="#3FB036"/>
<ellipse rx="5.5" ry="8" transform="matrix(0.341455 0.939898 -0.940993 0.338426 73.3501 62.8768)" fill="white"/>
<rect width="65" height="3" rx="1.5" transform="matrix(0.867113 0.498112 -0.50189 0.864931 93 77)" fill="white"/>
<rect width="65" height="3" rx="1.5" transform="matrix(0.867113 0.498112 -0.50189 0.864931 98 74)" fill="white"/>
<rect width="65" height="3" rx="1.5" transform="matrix(0.867113 0.498112 -0.50189 0.864931 103 71)" fill="white"/>
<circle r="1.5" transform="matrix(0.867113 0.498112 -0.50189 0.864931 87.5478 76.0446)" fill="white"/>
<circle r="1.5" transform="matrix(0.867113 0.498112 -0.50189 0.864931 92.5478 73.0446)" fill="white"/>
<circle r="1.5" transform="matrix(0.867113 0.498112 -0.50189 0.864931 97.5478 69.0446)" fill="white"/>
<circle r="1.5" transform="matrix(0.867113 0.498112 -0.50189 0.864931 81.5478 72.0446)" fill="white"/>
<circle r="1.5" transform="matrix(0.867113 0.498112 -0.50189 0.864931 86.5478 69.0446)" fill="white"/>
<circle r="1.5" transform="matrix(0.867113 0.498112 -0.50189 0.864931 91.5478 66.0446)" fill="white"/>
<path d="M97.3461 41.3675C98.4641 40.9254 99.7204 41.0007 100.771 41.5728L192.244 91.3949L192.217 95.7162C192.213 96.4116 191.842 97.0562 191.24 97.4166L175.751 106.682C174.491 107.436 172.919 107.451 171.652 106.721L81.4284 54.7695C80.814 54.4157 80.4364 53.7653 80.4358 53.0598L80.4321 48.0568L97.3461 41.3675Z" fill="url(#paint8_linear_1553_10361)"/>
<path d="M97.0051 36.9828C98.2546 36.2843 99.7813 36.2947 101.013 37.0099L191.485 89.5359C192.819 90.3103 192.796 92.2299 191.443 92.9861L176.249 101.48C175 102.178 173.473 102.168 172.241 101.453L81.769 48.9267C80.4351 48.1522 80.4588 46.2326 81.8116 45.4764L97.0051 36.9828Z" fill="#3FB036"/>
<ellipse rx="5.5" ry="8" transform="matrix(0.341455 0.939898 -0.940993 0.338426 98.3501 47.8768)" fill="white"/>
<rect width="65" height="3" rx="1.5" transform="matrix(0.867113 0.498112 -0.50189 0.864931 118 62)" fill="white"/>
<rect width="65" height="3" rx="1.5" transform="matrix(0.867113 0.498112 -0.50189 0.864931 123 59)" fill="white"/>
<rect width="65" height="3" rx="1.5" transform="matrix(0.867113 0.498112 -0.50189 0.864931 128 56)" fill="white"/>
<circle r="1.5" transform="matrix(0.867113 0.498112 -0.50189 0.864931 112.548 61.0446)" fill="white"/>
<circle r="1.5" transform="matrix(0.867113 0.498112 -0.50189 0.864931 117.548 58.0446)" fill="white"/>
<circle r="1.5" transform="matrix(0.867113 0.498112 -0.50189 0.864931 122.548 54.0446)" fill="white"/>
<circle r="1.5" transform="matrix(0.867113 0.498112 -0.50189 0.864931 106.548 57.0446)" fill="white"/>
<circle r="1.5" transform="matrix(0.867113 0.498112 -0.50189 0.864931 111.548 54.0446)" fill="white"/>
<circle r="1.5" transform="matrix(0.867113 0.498112 -0.50189 0.864931 116.548 51.0446)" fill="white"/>
<path d="M122.346 26.3675C123.464 25.9254 124.72 26.0007 125.771 26.5728L217.244 76.3949L217.217 80.7162C217.213 81.4116 216.842 82.0562 216.24 82.4166L200.751 91.6817C199.491 92.4356 197.919 92.4508 196.652 91.7213L106.428 39.7695C105.814 39.4157 105.436 38.7653 105.436 38.0598L105.432 33.0568L122.346 26.3675Z" fill="url(#paint9_linear_1553_10361)"/>
<path d="M122.005 21.9828C123.255 21.2843 124.781 21.2947 126.013 22.0099L216.485 74.5359C217.819 75.3103 217.796 77.2299 216.443 77.9861L201.249 86.4797C200 87.1782 198.473 87.1679 197.241 86.4526L106.769 33.9267C105.435 33.1522 105.459 31.2326 106.812 30.4764L122.005 21.9828Z" fill="#3FB036"/>
<ellipse rx="5.5" ry="8" transform="matrix(0.341455 0.939898 -0.940993 0.338426 123.35 32.8768)" fill="white"/>
<rect width="65" height="3" rx="1.5" transform="matrix(0.867113 0.498112 -0.50189 0.864931 143 47)" fill="white"/>
<rect width="65" height="3" rx="1.5" transform="matrix(0.867113 0.498112 -0.50189 0.864931 148 44)" fill="white"/>
<rect width="65" height="3" rx="1.5" transform="matrix(0.867113 0.498112 -0.50189 0.864931 153 41)" fill="white"/>
<circle r="1.5" transform="matrix(0.867113 0.498112 -0.50189 0.864931 137.548 46.0446)" fill="white"/>
<circle r="1.5" transform="matrix(0.867113 0.498112 -0.50189 0.864931 142.548 43.0446)" fill="white"/>
<circle r="1.5" transform="matrix(0.867113 0.498112 -0.50189 0.864931 147.548 39.0446)" fill="white"/>
<circle r="1.5" transform="matrix(0.867113 0.498112 -0.50189 0.864931 131.548 42.0446)" fill="white"/>
<circle r="1.5" transform="matrix(0.867113 0.498112 -0.50189 0.864931 136.548 39.0446)" fill="white"/>
<circle r="1.5" transform="matrix(0.867113 0.498112 -0.50189 0.864931 141.548 36.0446)" fill="white"/>
<path d="M147.346 11.3675C148.464 10.9254 149.72 11.0007 150.771 11.5728L242.244 61.3949L242.217 65.7162C242.213 66.4116 241.842 67.0562 241.24 67.4166L225.751 76.6817C224.491 77.4356 222.919 77.4508 221.652 76.7213L131.428 24.7695C130.814 24.4157 130.436 23.7653 130.436 23.0598L130.432 18.0568L147.346 11.3675Z" fill="url(#paint10_linear_1553_10361)"/>
<path d="M147.005 6.98281C148.255 6.28433 149.781 6.29466 151.013 7.00993L241.485 59.5359C242.819 60.3103 242.796 62.2299 241.443 62.9861L226.249 71.4797C225 72.1782 223.473 72.1679 222.241 71.4526L131.769 18.9267C130.435 18.1522 130.459 16.2326 131.812 15.4764L147.005 6.98281Z" fill="#3FB036"/>
<ellipse rx="5.5" ry="8" transform="matrix(0.341455 0.939898 -0.940993 0.338426 148.35 17.8768)" fill="white"/>
<rect width="65" height="3" rx="1.5" transform="matrix(0.867113 0.498112 -0.50189 0.864931 168 32)" fill="white"/>
<rect width="65" height="3" rx="1.5" transform="matrix(0.867113 0.498112 -0.50189 0.864931 173 29)" fill="white"/>
<rect width="65" height="3" rx="1.5" transform="matrix(0.867113 0.498112 -0.50189 0.864931 178 26)" fill="white"/>
<circle r="1.5" transform="matrix(0.867113 0.498112 -0.50189 0.864931 162.548 31.0446)" fill="white"/>
<circle r="1.5" transform="matrix(0.867113 0.498112 -0.50189 0.864931 167.548 28.0446)" fill="white"/>
<circle r="1.5" transform="matrix(0.867113 0.498112 -0.50189 0.864931 172.548 24.0446)" fill="white"/>
<circle r="1.5" transform="matrix(0.867113 0.498112 -0.50189 0.864931 156.548 27.0446)" fill="white"/>
<circle r="1.5" transform="matrix(0.867113 0.498112 -0.50189 0.864931 161.548 24.0446)" fill="white"/>
<circle r="1.5" transform="matrix(0.867113 0.498112 -0.50189 0.864931 166.548 21.0446)" fill="white"/>
<g clip-path="url(#clip1_1553_10361)">
<line x1="1" y1="-1" x2="19.9945" y2="-1" transform="matrix(-0.010406 -1.01666 0.862803 0.472183 136.855 189.821)" stroke="#9098B0" stroke-opacity="0.9" stroke-width="2" stroke-linecap="round"/>
<line x1="1" y1="-1" x2="19.9945" y2="-1" transform="matrix(-0.010406 -1.01666 0.862803 0.472183 129.092 185.268)" stroke="#9098B0" stroke-opacity="0.9" stroke-width="2" stroke-linecap="round"/>
<line x1="1" y1="-1" x2="19.9945" y2="-1" transform="matrix(-0.010406 -1.01666 0.862803 0.472183 121.309 181.716)" stroke="#9098B0" stroke-opacity="0.9" stroke-width="2" stroke-linecap="round"/>
<line x1="1" y1="-1" x2="19.9945" y2="-1" transform="matrix(-0.010406 -1.01666 0.862803 0.472183 113.545 177.163)" stroke="#9098B0" stroke-opacity="0.9" stroke-width="2" stroke-linecap="round"/>
<rect width="5.00826" height="4.00307" rx="1" transform="matrix(-0.862803 -0.472183 -0.010406 -1.01666 137.873 182.328)" fill="#737B96"/>
<rect width="5.00826" height="4.00307" rx="1" transform="matrix(-0.862803 -0.472183 -0.010406 -1.01666 130.109 177.776)" fill="#737B96"/>
<rect width="5.00826" height="4.00307" rx="1" transform="matrix(-0.862803 -0.472183 -0.010406 -1.01666 122.346 173.223)" fill="#737B96"/>
<rect width="5.00826" height="4.00307" rx="1" transform="matrix(-0.862803 -0.472183 -0.010406 -1.01666 114.562 169.671)" fill="#737B96"/>
<line x1="0.5" y1="-0.5" x2="2.49539" y2="-0.5" transform="matrix(-0.862803 -0.472183 -0.0104059 -1.01666 137.068 178.823)" stroke="white" stroke-linecap="round"/>
<line x1="0.5" y1="-0.5" x2="2.49539" y2="-0.5" transform="matrix(-0.862803 -0.472183 -0.0104059 -1.01666 129.305 174.27)" stroke="white" stroke-linecap="round"/>
<line x1="0.5" y1="-0.5" x2="2.49539" y2="-0.5" transform="matrix(-0.862803 -0.472183 -0.0104059 -1.01666 121.521 170.718)" stroke="white" stroke-linecap="round"/>
<line x1="0.5" y1="-0.5" x2="2.49539" y2="-0.5" transform="matrix(-0.862803 -0.472183 -0.0104059 -1.01666 114.62 166.671)" stroke="white" stroke-linecap="round"/>
</g>
<circle r="11" transform="matrix(0.865468 -0.500965 -0.0197083 0.999806 243.303 134.487)" fill="#9098B0"/>
<line x1="1" y1="-1" x2="35" y2="-1" transform="matrix(0.871846 -0.489781 0.49154 0.870855 198 168)" stroke="#9098B0" stroke-width="2" stroke-linecap="round"/>
<line x1="1" y1="-1" x2="35" y2="-1" transform="matrix(0.867628 -0.497213 0.499016 0.866593 198 161)" stroke="#9098B0" stroke-width="2" stroke-linecap="round"/>
<line x1="1" y1="-1" x2="35" y2="-1" transform="matrix(0.866066 -0.49993 0.501748 0.865014 198 154)" stroke="#9098B0" stroke-width="2" stroke-linecap="round"/>
<path d="M243.789 125.491C242.766 126.083 241.749 126.902 240.795 127.902C239.841 128.901 238.969 130.061 238.229 131.315C237.49 132.569 236.896 133.893 236.483 135.212C236.07 136.53 235.846 137.817 235.823 138.998L238.407 137.503C238.422 136.713 238.572 135.853 238.848 134.972C239.124 134.091 239.521 133.206 240.015 132.368C240.509 131.53 241.092 130.755 241.729 130.087C242.367 129.419 243.047 128.872 243.73 128.476L243.789 125.491Z" fill="#DBDFEA"/>
<path d="M251.823 128.998C251.846 127.817 251.668 126.763 251.298 125.898C250.928 125.033 250.373 124.373 249.667 123.956C248.96 123.539 248.114 123.373 247.178 123.468C246.242 123.563 245.234 123.917 244.211 124.509L244.152 127.494C244.836 127.098 245.509 126.862 246.135 126.798C246.76 126.735 247.326 126.846 247.798 127.124C248.27 127.403 248.641 127.844 248.888 128.422C249.135 129 249.254 129.704 249.239 130.494L251.823 128.998Z" fill="#DBDFEA"/>
<path d="M247.901 130.999C247.914 130.343 247.815 129.757 247.61 129.277C247.404 128.796 247.096 128.429 246.704 128.198C246.311 127.966 245.841 127.874 245.321 127.927C244.801 127.979 244.241 128.176 243.673 128.505L243.626 130.853C243.928 130.678 244.225 130.574 244.501 130.546C244.776 130.518 245.026 130.567 245.234 130.69C245.442 130.813 245.605 131.007 245.714 131.262C245.823 131.517 245.876 131.827 245.869 132.175L247.901 130.999Z" fill="#DBDFEA"/>
<path d="M243.327 129.495C242.759 129.824 242.194 130.279 241.664 130.834C241.134 131.389 240.65 132.034 240.239 132.731C239.828 133.427 239.498 134.163 239.269 134.895C239.039 135.628 238.914 136.343 238.901 136.999L240.934 135.823C240.941 135.474 241.007 135.095 241.129 134.707C241.25 134.319 241.425 133.928 241.643 133.559C241.861 133.189 242.118 132.848 242.399 132.553C242.68 132.259 242.98 132.017 243.281 131.843L243.327 129.495Z" fill="#DBDFEA"/>
<path d="M239.099 138.001C239.086 138.657 239.185 139.243 239.39 139.723C239.596 140.204 239.904 140.571 240.296 140.802C240.689 141.034 241.159 141.126 241.679 141.073C242.199 141.021 242.759 140.824 243.327 140.495L243.374 138.147C243.072 138.322 242.775 138.426 242.499 138.454C242.224 138.482 241.974 138.433 241.766 138.31C241.558 138.187 241.395 137.993 241.286 137.738C241.177 137.483 241.124 137.173 241.131 136.825L239.099 138.001Z" fill="#DBDFEA"/>
<path d="M243.673 139.505C244.241 139.176 244.806 138.721 245.336 138.166C245.866 137.611 246.35 136.966 246.761 136.269C247.172 135.573 247.502 134.837 247.731 134.105C247.961 133.372 248.086 132.657 248.099 132.001L246.066 133.177C246.059 133.526 245.993 133.905 245.871 134.293C245.75 134.681 245.575 135.072 245.357 135.441C245.139 135.811 244.882 136.152 244.601 136.447C244.32 136.741 244.02 136.983 243.719 137.157L243.673 139.505Z" fill="#DBDFEA"/>
<path d="M244.211 143.509C245.234 142.917 246.251 142.098 247.205 141.098C248.159 140.099 249.031 138.939 249.771 137.685C250.51 136.431 251.104 135.107 251.517 133.788C251.93 132.47 252.154 131.183 252.177 130.002L249.593 131.497C249.578 132.287 249.428 133.147 249.152 134.028C248.876 134.909 248.479 135.794 247.985 136.632C247.491 137.47 246.908 138.245 246.271 138.913C245.633 139.581 244.953 140.128 244.27 140.524L244.211 143.509Z" fill="#DBDFEA"/>
<path d="M235.177 140.002C235.154 141.183 235.332 142.237 235.702 143.102C236.072 143.967 236.627 144.627 237.333 145.044C238.04 145.461 238.886 145.627 239.822 145.532C240.758 145.437 241.766 145.083 242.789 144.491L242.848 141.506C242.164 141.902 241.491 142.138 240.865 142.202C240.24 142.265 239.674 142.154 239.202 141.876C238.73 141.597 238.359 141.156 238.112 140.578C237.865 140 237.746 139.296 237.761 138.506L235.177 140.002Z" fill="#DBDFEA"/>
<g clip-path="url(#clip2_1553_10361)">
<path d="M98.089 165.841L90.5281 161.474L90.7779 144.354L98.3388 148.721L102.674 159.532L98.089 165.841Z" fill="#F0F2FA"/>
<path d="M95.6331 166.303L47.5229 138.537L47.794 117.37L95.8995 145.395L95.6331 166.303Z" fill="#3FB036"/>
<path d="M60.3936 146.315L56.3123 143.962L52.799 131.347L56.5844 122.796L60.6658 125.17L56.8803 133.705L60.3936 146.315Z" fill="#F0F2FA"/>
<path d="M67.2647 150.416L63.1833 148.061L59.6702 135.436L63.456 126.895L67.5376 129.28L63.7516 137.794L67.2647 150.416Z" fill="#F0F2FA"/>
<path d="M73.2765 154.001L69.1949 151.646L65.682 139.013L69.4684 130.481L73.55 132.859L69.7636 141.37L73.2765 154.001Z" fill="#F0F2FA"/>
<ellipse rx="1.99971" ry="1.99994" transform="matrix(-0.859147 -0.496198 0.0131521 -1.00783 98.4792 156.88)" fill="#3FB036"/>
<path d="M89.9328 154.287L87.4286 154.4L86.9058 157.674L84.9234 153.86L82.1377 152.606L83.4167 150.136L82.2178 146.088L84.9908 148.375L87.0355 147.127L87.4702 151.01L89.9328 154.287Z" fill="#F0F2FA"/>
</g>
<path d="M164.402 171.735L192 155.435L192.157 164.323L164.557 180.579L164.402 171.735Z" fill="#AE1C28"/>
<path d="M164.448 180.663L192.047 164.501L192.096 173.36L164.495 189.519L164.448 180.663Z" fill="#005BBB"/>
<path d="M164.056 177.427L191.321 161.508L191.668 167.923L164.408 183.941L164.056 177.427Z" fill="white"/>
<rect x="40" y="110" width="7" height="16" fill="#C4C4C4"/>
<path d="M145.916 116.425C148.433 114.93 151.567 114.93 154.084 116.425L259.082 178.767C260.392 179.545 260.386 181.444 259.07 182.213L154.039 243.638C151.544 245.097 148.456 245.097 145.961 243.638L40.9298 182.213C39.6144 181.444 39.6081 179.545 40.9183 178.767L145.916 116.425Z" fill="url(#paint11_diamond_1553_10361)" fill-opacity="0.05"/>
<path d="M147.452 70.8554C149.105 70.3004 150.893 70.3004 152.546 70.8554L260 106.943L260 137.29C260 138.004 259.619 138.664 259.001 139.022L154.001 199.688C151.525 201.118 148.473 201.118 145.997 199.688L40.9995 139.024C40.381 138.666 40 138.006 40 137.292L40 106.943L147.452 70.8554Z" fill="url(#paint12_linear_1553_10361)"/>
<path d="M145.916 43.4251C148.433 41.9302 151.567 41.9302 154.084 43.4251L259.082 105.767C260.392 106.545 260.386 108.444 259.07 109.213L154.039 170.638C151.544 172.097 148.456 172.097 145.961 170.638L40.9298 109.213C39.6144 108.444 39.6081 106.545 40.9183 105.767L145.916 43.4251Z" fill="url(#paint13_linear_1553_10361)"/>
<path d="M145.91 47.4336C148.43 45.9339 151.57 45.9339 154.09 47.4336L252.089 105.738C253.397 106.516 253.391 108.413 252.078 109.182L154.045 166.63C151.547 168.094 148.453 168.094 145.955 166.63L47.9223 109.182C46.609 108.413 46.6027 106.516 47.9109 105.738L145.91 47.4336Z" fill="url(#paint14_linear_1553_10361)"/>
<path d="M145.916 71.4251C148.433 69.9302 151.567 69.9302 154.084 71.4251L234 118.875L154.039 165.638C151.544 167.097 148.456 167.097 145.961 165.638L66 118.875L145.916 71.4251Z" fill="url(#paint15_linear_1553_10361)"/>
<path d="M145.884 4.46887C148.417 2.94921 151.582 2.94939 154.115 4.46933L260 68.0012L260 72.7955C260 73.5025 259.627 74.1569 259.018 74.5169L154.041 136.61C151.546 138.085 148.448 138.096 145.942 136.637L40.9935 75.5152C40.3783 75.157 40 74.4988 40 73.7869L40 67.984L145.884 4.46887Z" fill="url(#paint16_linear_1553_10361)"/>
<path d="M145.916 3.42506C148.433 1.93017 151.567 1.93018 154.084 3.42506L259.082 65.7672C260.392 66.5452 260.386 68.4441 259.07 69.2134L154.039 130.638C151.544 132.097 148.456 132.097 145.961 130.638L40.9298 69.2134C39.6144 68.4441 39.6081 66.5452 40.9183 65.7672L145.916 3.42506Z" fill="url(#paint17_linear_1553_10361)"/>
<path d="M146.726 10.4781C149.254 8.95257 152.415 8.94267 154.952 10.4524L247.112 65.3007C248.415 66.0762 248.414 67.963 247.111 68.7382L153.229 124.585C150.724 126.075 147.607 126.085 145.093 124.611L52.9004 70.5679C51.5921 69.801 51.5799 67.914 52.8782 67.1303L146.726 10.4781Z" fill="#333D5E"/>
<path d="M72.3461 56.3675C73.4641 55.9254 74.7204 56.0007 75.7709 56.5728L167.244 106.395L167.217 110.716C167.213 111.412 166.842 112.056 166.24 112.417L150.751 121.682C149.491 122.436 147.919 122.451 146.652 121.721L56.4284 69.7695C55.814 69.4157 55.4364 68.7653 55.4358 68.0598L55.4321 63.0568L72.3461 56.3675Z" fill="url(#paint18_linear_1553_10361)"/>
<path d="M72.0051 51.9828C73.2546 51.2843 74.7813 51.2947 76.0133 52.0099L166.485 104.536C167.819 105.31 167.796 107.23 166.443 107.986L151.249 116.48C150 117.178 148.473 117.168 147.241 116.453L56.769 63.9267C55.4351 63.1522 55.4588 61.2326 56.8116 60.4764L72.0051 51.9828Z" fill="#3FB036"/>
<ellipse rx="5.5" ry="8" transform="matrix(0.341455 0.939898 -0.940993 0.338426 73.3501 62.8768)" fill="white"/>
<rect width="65" height="3" rx="1.5" transform="matrix(0.867113 0.498112 -0.50189 0.864931 93 77)" fill="white"/>
<rect width="65" height="3" rx="1.5" transform="matrix(0.867113 0.498112 -0.50189 0.864931 98 74)" fill="white"/>
<rect width="65" height="3" rx="1.5" transform="matrix(0.867113 0.498112 -0.50189 0.864931 103 71)" fill="white"/>
<circle r="1.5" transform="matrix(0.867113 0.498112 -0.50189 0.864931 87.5478 76.0446)" fill="white"/>
<circle r="1.5" transform="matrix(0.867113 0.498112 -0.50189 0.864931 92.5478 73.0446)" fill="white"/>
<circle r="1.5" transform="matrix(0.867113 0.498112 -0.50189 0.864931 97.5478 69.0446)" fill="white"/>
<circle r="1.5" transform="matrix(0.867113 0.498112 -0.50189 0.864931 81.5478 72.0446)" fill="white"/>
<circle r="1.5" transform="matrix(0.867113 0.498112 -0.50189 0.864931 86.5478 69.0446)" fill="white"/>
<circle r="1.5" transform="matrix(0.867113 0.498112 -0.50189 0.864931 91.5478 66.0446)" fill="white"/>
<path d="M97.3461 41.3675C98.4641 40.9254 99.7204 41.0007 100.771 41.5728L192.244 91.3949L192.217 95.7162C192.213 96.4116 191.842 97.0562 191.24 97.4166L175.751 106.682C174.491 107.436 172.919 107.451 171.652 106.721L81.4284 54.7695C80.814 54.4157 80.4364 53.7653 80.4358 53.0598L80.4321 48.0568L97.3461 41.3675Z" fill="url(#paint19_linear_1553_10361)"/>
<path d="M97.0051 36.9828C98.2546 36.2843 99.7813 36.2947 101.013 37.0099L191.485 89.5359C192.819 90.3103 192.796 92.2299 191.443 92.9861L176.249 101.48C175 102.178 173.473 102.168 172.241 101.453L81.769 48.9267C80.4351 48.1522 80.4588 46.2326 81.8116 45.4764L97.0051 36.9828Z" fill="#3FB036"/>
<ellipse rx="5.5" ry="8" transform="matrix(0.341455 0.939898 -0.940993 0.338426 98.3501 47.8768)" fill="white"/>
<rect width="65" height="3" rx="1.5" transform="matrix(0.867113 0.498112 -0.50189 0.864931 118 62)" fill="white"/>
<rect width="65" height="3" rx="1.5" transform="matrix(0.867113 0.498112 -0.50189 0.864931 123 59)" fill="white"/>
<rect width="65" height="3" rx="1.5" transform="matrix(0.867113 0.498112 -0.50189 0.864931 128 56)" fill="white"/>
<circle r="1.5" transform="matrix(0.867113 0.498112 -0.50189 0.864931 112.548 61.0446)" fill="white"/>
<circle r="1.5" transform="matrix(0.867113 0.498112 -0.50189 0.864931 117.548 58.0446)" fill="white"/>
<circle r="1.5" transform="matrix(0.867113 0.498112 -0.50189 0.864931 122.548 54.0446)" fill="white"/>
<circle r="1.5" transform="matrix(0.867113 0.498112 -0.50189 0.864931 106.548 57.0446)" fill="white"/>
<circle r="1.5" transform="matrix(0.867113 0.498112 -0.50189 0.864931 111.548 54.0446)" fill="white"/>
<circle r="1.5" transform="matrix(0.867113 0.498112 -0.50189 0.864931 116.548 51.0446)" fill="white"/>
<path d="M122.346 26.3675C123.464 25.9254 124.72 26.0007 125.771 26.5728L217.244 76.3949L217.217 80.7162C217.213 81.4116 216.842 82.0562 216.24 82.4166L200.751 91.6817C199.491 92.4356 197.919 92.4508 196.652 91.7213L106.428 39.7695C105.814 39.4157 105.436 38.7653 105.436 38.0598L105.432 33.0568L122.346 26.3675Z" fill="url(#paint20_linear_1553_10361)"/>
<path d="M122.005 21.9828C123.255 21.2843 124.781 21.2947 126.013 22.0099L216.485 74.5359C217.819 75.3103 217.796 77.2299 216.443 77.9861L201.249 86.4797C200 87.1782 198.473 87.1679 197.241 86.4526L106.769 33.9267C105.435 33.1522 105.459 31.2326 106.812 30.4764L122.005 21.9828Z" fill="#3FB036"/>
<ellipse rx="5.5" ry="8" transform="matrix(0.341455 0.939898 -0.940993 0.338426 123.35 32.8768)" fill="white"/>
<rect width="65" height="3" rx="1.5" transform="matrix(0.867113 0.498112 -0.50189 0.864931 143 47)" fill="white"/>
<rect width="65" height="3" rx="1.5" transform="matrix(0.867113 0.498112 -0.50189 0.864931 148 44)" fill="white"/>
<rect width="65" height="3" rx="1.5" transform="matrix(0.867113 0.498112 -0.50189 0.864931 153 41)" fill="white"/>
<circle r="1.5" transform="matrix(0.867113 0.498112 -0.50189 0.864931 137.548 46.0446)" fill="white"/>
<circle r="1.5" transform="matrix(0.867113 0.498112 -0.50189 0.864931 142.548 43.0446)" fill="white"/>
<circle r="1.5" transform="matrix(0.867113 0.498112 -0.50189 0.864931 147.548 39.0446)" fill="white"/>
<circle r="1.5" transform="matrix(0.867113 0.498112 -0.50189 0.864931 131.548 42.0446)" fill="white"/>
<circle r="1.5" transform="matrix(0.867113 0.498112 -0.50189 0.864931 136.548 39.0446)" fill="white"/>
<circle r="1.5" transform="matrix(0.867113 0.498112 -0.50189 0.864931 141.548 36.0446)" fill="white"/>
<path d="M147.346 11.3675C148.464 10.9254 149.72 11.0007 150.771 11.5728L242.244 61.3949L242.217 65.7162C242.213 66.4116 241.842 67.0562 241.24 67.4166L225.751 76.6817C224.491 77.4356 222.919 77.4508 221.652 76.7213L131.428 24.7695C130.814 24.4157 130.436 23.7653 130.436 23.0598L130.432 18.0568L147.346 11.3675Z" fill="url(#paint21_linear_1553_10361)"/>
<path d="M147.005 6.98281C148.255 6.28433 149.781 6.29466 151.013 7.00993L241.485 59.5359C242.819 60.3103 242.796 62.2299 241.443 62.9861L226.249 71.4797C225 72.1782 223.473 72.1679 222.241 71.4526L131.769 18.9267C130.435 18.1522 130.459 16.2326 131.812 15.4764L147.005 6.98281Z" fill="#3FB036"/>
<ellipse rx="5.5" ry="8" transform="matrix(0.341455 0.939898 -0.940993 0.338426 148.35 17.8768)" fill="white"/>
<rect width="65" height="3" rx="1.5" transform="matrix(0.867113 0.498112 -0.50189 0.864931 168 32)" fill="white"/>
<rect width="65" height="3" rx="1.5" transform="matrix(0.867113 0.498112 -0.50189 0.864931 173 29)" fill="white"/>
<rect width="65" height="3" rx="1.5" transform="matrix(0.867113 0.498112 -0.50189 0.864931 178 26)" fill="white"/>
<circle r="1.5" transform="matrix(0.867113 0.498112 -0.50189 0.864931 162.548 31.0446)" fill="white"/>
<circle r="1.5" transform="matrix(0.867113 0.498112 -0.50189 0.864931 167.548 28.0446)" fill="white"/>
<circle r="1.5" transform="matrix(0.867113 0.498112 -0.50189 0.864931 172.548 24.0446)" fill="white"/>
<circle r="1.5" transform="matrix(0.867113 0.498112 -0.50189 0.864931 156.548 27.0446)" fill="white"/>
<circle r="1.5" transform="matrix(0.867113 0.498112 -0.50189 0.864931 161.548 24.0446)" fill="white"/>
<circle r="1.5" transform="matrix(0.867113 0.498112 -0.50189 0.864931 166.548 21.0446)" fill="white"/>
<g clip-path="url(#clip3_1553_10361)">
<line x1="1" y1="-1" x2="19.9945" y2="-1" transform="matrix(-0.010406 -1.01666 0.862803 0.472183 136.855 189.821)" stroke="#9098B0" stroke-opacity="0.9" stroke-width="2" stroke-linecap="round"/>
<line x1="1" y1="-1" x2="19.9945" y2="-1" transform="matrix(-0.010406 -1.01666 0.862803 0.472183 129.092 185.268)" stroke="#9098B0" stroke-opacity="0.9" stroke-width="2" stroke-linecap="round"/>
<line x1="1" y1="-1" x2="19.9945" y2="-1" transform="matrix(-0.010406 -1.01666 0.862803 0.472183 121.309 181.716)" stroke="#9098B0" stroke-opacity="0.9" stroke-width="2" stroke-linecap="round"/>
<line x1="1" y1="-1" x2="19.9945" y2="-1" transform="matrix(-0.010406 -1.01666 0.862803 0.472183 113.545 177.163)" stroke="#9098B0" stroke-opacity="0.9" stroke-width="2" stroke-linecap="round"/>
<rect width="5.00826" height="4.00307" rx="1" transform="matrix(-0.862803 -0.472183 -0.010406 -1.01666 137.873 182.328)" fill="#737B96"/>
<rect width="5.00826" height="4.00307" rx="1" transform="matrix(-0.862803 -0.472183 -0.010406 -1.01666 130.109 177.776)" fill="#737B96"/>
<rect width="5.00826" height="4.00307" rx="1" transform="matrix(-0.862803 -0.472183 -0.010406 -1.01666 122.346 173.223)" fill="#737B96"/>
<rect width="5.00826" height="4.00307" rx="1" transform="matrix(-0.862803 -0.472183 -0.010406 -1.01666 114.562 169.671)" fill="#737B96"/>
<line x1="0.5" y1="-0.5" x2="2.49539" y2="-0.5" transform="matrix(-0.862803 -0.472183 -0.0104059 -1.01666 137.068 178.823)" stroke="white" stroke-linecap="round"/>
<line x1="0.5" y1="-0.5" x2="2.49539" y2="-0.5" transform="matrix(-0.862803 -0.472183 -0.0104059 -1.01666 129.305 174.27)" stroke="white" stroke-linecap="round"/>
<line x1="0.5" y1="-0.5" x2="2.49539" y2="-0.5" transform="matrix(-0.862803 -0.472183 -0.0104059 -1.01666 121.521 170.718)" stroke="white" stroke-linecap="round"/>
<line x1="0.5" y1="-0.5" x2="2.49539" y2="-0.5" transform="matrix(-0.862803 -0.472183 -0.0104059 -1.01666 114.62 166.671)" stroke="white" stroke-linecap="round"/>
</g>
<circle r="11" transform="matrix(0.865468 -0.500965 -0.0197083 0.999806 243.303 134.487)" fill="#9098B0"/>
<line x1="1" y1="-1" x2="35" y2="-1" transform="matrix(0.871846 -0.489781 0.49154 0.870855 198 168)" stroke="#9098B0" stroke-width="2" stroke-linecap="round"/>
<line x1="1" y1="-1" x2="35" y2="-1" transform="matrix(0.867628 -0.497213 0.499016 0.866593 198 161)" stroke="#9098B0" stroke-width="2" stroke-linecap="round"/>
<line x1="1" y1="-1" x2="35" y2="-1" transform="matrix(0.866066 -0.49993 0.501748 0.865014 198 154)" stroke="#9098B0" stroke-width="2" stroke-linecap="round"/>
<path d="M243.789 125.491C242.766 126.083 241.749 126.902 240.795 127.902C239.841 128.901 238.969 130.061 238.229 131.315C237.49 132.569 236.896 133.893 236.483 135.212C236.07 136.53 235.846 137.817 235.823 138.998L238.407 137.503C238.422 136.713 238.572 135.853 238.848 134.972C239.124 134.091 239.521 133.206 240.015 132.368C240.509 131.53 241.092 130.755 241.729 130.087C242.367 129.419 243.047 128.872 243.73 128.476L243.789 125.491Z" fill="#DBDFEA"/>
<path d="M251.823 128.998C251.846 127.817 251.668 126.763 251.298 125.898C250.928 125.033 250.373 124.373 249.667 123.956C248.96 123.539 248.114 123.373 247.178 123.468C246.242 123.563 245.234 123.917 244.211 124.509L244.152 127.494C244.836 127.098 245.509 126.862 246.135 126.798C246.76 126.735 247.326 126.846 247.798 127.124C248.27 127.403 248.641 127.844 248.888 128.422C249.135 129 249.254 129.704 249.239 130.494L251.823 128.998Z" fill="#DBDFEA"/>
<path d="M247.901 130.999C247.914 130.343 247.815 129.757 247.61 129.277C247.404 128.796 247.096 128.429 246.704 128.198C246.311 127.966 245.841 127.874 245.321 127.927C244.801 127.979 244.241 128.176 243.673 128.505L243.626 130.853C243.928 130.678 244.225 130.574 244.501 130.546C244.776 130.518 245.026 130.567 245.234 130.69C245.442 130.813 245.605 131.007 245.714 131.262C245.823 131.517 245.876 131.827 245.869 132.175L247.901 130.999Z" fill="#DBDFEA"/>
<path d="M243.327 129.495C242.759 129.824 242.194 130.279 241.664 130.834C241.134 131.389 240.65 132.034 240.239 132.731C239.828 133.427 239.498 134.163 239.269 134.895C239.039 135.628 238.914 136.343 238.901 136.999L240.934 135.823C240.941 135.474 241.007 135.095 241.129 134.707C241.25 134.319 241.425 133.928 241.643 133.559C241.861 133.189 242.118 132.848 242.399 132.553C242.68 132.259 242.98 132.017 243.281 131.843L243.327 129.495Z" fill="#DBDFEA"/>
<path d="M239.099 138.001C239.086 138.657 239.185 139.243 239.39 139.723C239.596 140.204 239.904 140.571 240.296 140.802C240.689 141.034 241.159 141.126 241.679 141.073C242.199 141.021 242.759 140.824 243.327 140.495L243.374 138.147C243.072 138.322 242.775 138.426 242.499 138.454C242.224 138.482 241.974 138.433 241.766 138.31C241.558 138.187 241.395 137.993 241.286 137.738C241.177 137.483 241.124 137.173 241.131 136.825L239.099 138.001Z" fill="#DBDFEA"/>
<path d="M243.673 139.505C244.241 139.176 244.806 138.721 245.336 138.166C245.866 137.611 246.35 136.966 246.761 136.269C247.172 135.573 247.502 134.837 247.731 134.105C247.961 133.372 248.086 132.657 248.099 132.001L246.066 133.177C246.059 133.526 245.993 133.905 245.871 134.293C245.75 134.681 245.575 135.072 245.357 135.441C245.139 135.811 244.882 136.152 244.601 136.447C244.32 136.741 244.02 136.983 243.719 137.157L243.673 139.505Z" fill="#DBDFEA"/>
<path d="M244.211 143.509C245.234 142.917 246.251 142.098 247.205 141.098C248.159 140.099 249.031 138.939 249.771 137.685C250.51 136.431 251.104 135.107 251.517 133.788C251.93 132.47 252.154 131.183 252.177 130.002L249.593 131.497C249.578 132.287 249.428 133.147 249.152 134.028C248.876 134.909 248.479 135.794 247.985 136.632C247.491 137.47 246.908 138.245 246.271 138.913C245.633 139.581 244.953 140.128 244.27 140.524L244.211 143.509Z" fill="#DBDFEA"/>
<path d="M235.177 140.002C235.154 141.183 235.332 142.237 235.702 143.102C236.072 143.967 236.627 144.627 237.333 145.044C238.04 145.461 238.886 145.627 239.822 145.532C240.758 145.437 241.766 145.083 242.789 144.491L242.848 141.506C242.164 141.902 241.491 142.138 240.865 142.202C240.24 142.265 239.674 142.154 239.202 141.876C238.73 141.597 238.359 141.156 238.112 140.578C237.865 140 237.746 139.296 237.761 138.506L235.177 140.002Z" fill="#DBDFEA"/>
<g clip-path="url(#clip4_1553_10361)">
<path d="M98.089 165.841L90.5281 161.474L90.7779 144.354L98.3388 148.721L102.674 159.532L98.089 165.841Z" fill="#F0F2FA"/>
<path d="M95.6331 166.303L47.5229 138.537L47.794 117.37L95.8995 145.395L95.6331 166.303Z" fill="#3FB036"/>
<path d="M60.3936 146.315L56.3123 143.962L52.799 131.347L56.5844 122.796L60.6658 125.17L56.8803 133.705L60.3936 146.315Z" fill="#F0F2FA"/>
<path d="M67.2647 150.416L63.1833 148.061L59.6702 135.436L63.456 126.895L67.5376 129.28L63.7516 137.794L67.2647 150.416Z" fill="#F0F2FA"/>
<path d="M73.2765 154.001L69.1949 151.646L65.682 139.013L69.4684 130.481L73.55 132.859L69.7636 141.37L73.2765 154.001Z" fill="#F0F2FA"/>
<ellipse rx="1.99971" ry="1.99994" transform="matrix(-0.859147 -0.496198 0.0131521 -1.00783 98.4792 156.88)" fill="#3FB036"/>
<path d="M89.9328 154.287L87.4286 154.4L86.9058 157.674L84.9234 153.86L82.1377 152.606L83.4167 150.136L82.2178 146.088L84.9908 148.375L87.0355 147.127L87.4702 151.01L89.9328 154.287Z" fill="#F0F2FA"/>
</g>
<rect x="40" y="110" width="7" height="16" fill="#C4C4C4"/>
</g>
<defs>
<radialGradient id="paint0_diamond_1553_10361" cx="0" cy="0" r="1" gradientUnits="userSpaceOnUse" gradientTransform="translate(150 97.5) rotate(90) scale(148.5 270.1)">
<stop stop-opacity="0"/>
<stop offset="0.449103" stop-opacity="0"/>
<stop offset="0.654251" stop-opacity="0"/>
<stop offset="1"/>
</radialGradient>
<linearGradient id="paint1_linear_1553_10361" x1="38.0546" y1="136" x2="261.943" y2="136" gradientUnits="userSpaceOnUse">
<stop stop-color="#C9D1DF"/>
<stop offset="0.504088" stop-color="#CCD2E0"/>
<stop offset="1" stop-color="#E3E6EF"/>
</linearGradient>
<linearGradient id="paint2_linear_1553_10361" x1="38" y1="107" x2="260.337" y2="107" gradientUnits="userSpaceOnUse">
<stop stop-color="#EAEDF6"/>
<stop offset="1" stop-color="#F5F7FD"/>
</linearGradient>
<linearGradient id="paint3_linear_1553_10361" x1="45" y1="107" x2="253.441" y2="107" gradientUnits="userSpaceOnUse">
<stop stop-color="#C9D0DE"/>
<stop offset="1" stop-color="#E2E5EE"/>
</linearGradient>
<linearGradient id="paint4_linear_1553_10361" x1="66" y1="118.5" x2="232.753" y2="118.5" gradientUnits="userSpaceOnUse">
<stop stop-color="#333D5E"/>
<stop offset="1" stop-color="#333D5E"/>
</linearGradient>
<linearGradient id="paint5_linear_1553_10361" x1="40" y1="70.5" x2="260" y2="70.5" gradientUnits="userSpaceOnUse">
<stop stop-color="#38406C"/>
<stop offset="1" stop-color="#565E8B"/>
</linearGradient>
<linearGradient id="paint6_linear_1553_10361" x1="38" y1="67" x2="260.337" y2="67" gradientUnits="userSpaceOnUse">
<stop stop-color="#424D74"/>
<stop offset="1" stop-color="#636F97"/>
</linearGradient>
<linearGradient id="paint7_linear_1553_10361" x1="58.579" y1="59.0116" x2="163.548" y2="120.738" gradientUnits="userSpaceOnUse">
<stop stop-color="#378131"/>
<stop offset="1" stop-color="#37972F"/>
</linearGradient>
<linearGradient id="paint8_linear_1553_10361" x1="83.579" y1="44.0116" x2="188.548" y2="105.738" gradientUnits="userSpaceOnUse">
<stop stop-color="#378131"/>
<stop offset="1" stop-color="#37972F"/>
</linearGradient>
<linearGradient id="paint9_linear_1553_10361" x1="108.579" y1="29.0116" x2="213.548" y2="90.7382" gradientUnits="userSpaceOnUse">
<stop stop-color="#378131"/>
<stop offset="1" stop-color="#37972F"/>
</linearGradient>
<linearGradient id="paint10_linear_1553_10361" x1="133.579" y1="14.0116" x2="238.548" y2="75.7382" gradientUnits="userSpaceOnUse">
<stop stop-color="#378131"/>
<stop offset="1" stop-color="#37972F"/>
</linearGradient>
<radialGradient id="paint11_diamond_1553_10361" cx="0" cy="0" r="1" gradientUnits="userSpaceOnUse" gradientTransform="translate(150 97.5) rotate(90) scale(148.5 270.1)">
<stop stop-opacity="0"/>
<stop offset="0.449103" stop-opacity="0"/>
<stop offset="0.654251" stop-opacity="0"/>
<stop offset="1"/>
</radialGradient>
<linearGradient id="paint12_linear_1553_10361" x1="38.0546" y1="136" x2="261.943" y2="136" gradientUnits="userSpaceOnUse">
<stop stop-color="#C9D1DF"/>
<stop offset="0.504088" stop-color="#CCD2E0"/>
<stop offset="1" stop-color="#E3E6EF"/>
</linearGradient>
<linearGradient id="paint13_linear_1553_10361" x1="38" y1="107" x2="260.337" y2="107" gradientUnits="userSpaceOnUse">
<stop stop-color="#EAEDF6"/>
<stop offset="1" stop-color="#F5F7FD"/>
</linearGradient>
<linearGradient id="paint14_linear_1553_10361" x1="45" y1="107" x2="253.441" y2="107" gradientUnits="userSpaceOnUse">
<stop stop-color="#C9D0DE"/>
<stop offset="1" stop-color="#E2E5EE"/>
</linearGradient>
<linearGradient id="paint15_linear_1553_10361" x1="66" y1="118.5" x2="232.753" y2="118.5" gradientUnits="userSpaceOnUse">
<stop stop-color="#333D5E"/>
<stop offset="1" stop-color="#333D5E"/>
</linearGradient>
<linearGradient id="paint16_linear_1553_10361" x1="40" y1="70.5" x2="260" y2="70.5" gradientUnits="userSpaceOnUse">
<stop stop-color="#38406C"/>
<stop offset="1" stop-color="#565E8B"/>
</linearGradient>
<linearGradient id="paint17_linear_1553_10361" x1="38" y1="67" x2="260.337" y2="67" gradientUnits="userSpaceOnUse">
<stop stop-color="#424D74"/>
<stop offset="1" stop-color="#636F97"/>
</linearGradient>
<linearGradient id="paint18_linear_1553_10361" x1="58.579" y1="59.0116" x2="163.548" y2="120.738" gradientUnits="userSpaceOnUse">
<stop stop-color="#378131"/>
<stop offset="1" stop-color="#37972F"/>
</linearGradient>
<linearGradient id="paint19_linear_1553_10361" x1="83.579" y1="44.0116" x2="188.548" y2="105.738" gradientUnits="userSpaceOnUse">
<stop stop-color="#378131"/>
<stop offset="1" stop-color="#37972F"/>
</linearGradient>
<linearGradient id="paint20_linear_1553_10361" x1="108.579" y1="29.0116" x2="213.548" y2="90.7382" gradientUnits="userSpaceOnUse">
<stop stop-color="#378131"/>
<stop offset="1" stop-color="#37972F"/>
</linearGradient>
<linearGradient id="paint21_linear_1553_10361" x1="133.579" y1="14.0116" x2="238.548" y2="75.7382" gradientUnits="userSpaceOnUse">
<stop stop-color="#378131"/>
<stop offset="1" stop-color="#37972F"/>
</linearGradient>
<clipPath id="clip0_1553_10361">
<rect width="293" height="249" fill="white"/>
</clipPath>
<clipPath id="clip1_1553_10361">
<rect width="158" height="52" fill="white" transform="matrix(0.862637 0.505823 -0.0193572 0.999813 15 85)"/>
</clipPath>
<clipPath id="clip2_1553_10361">
<rect width="95" height="49" fill="white" transform="matrix(-0.858823 -0.512273 0.027128 -0.999632 108 193)"/>
</clipPath>
<clipPath id="clip3_1553_10361">
<rect width="158" height="52" fill="white" transform="matrix(0.862637 0.505823 -0.0193572 0.999813 15 85)"/>
</clipPath>
<clipPath id="clip4_1553_10361">
<rect width="95" height="49" fill="white" transform="matrix(-0.858823 -0.512273 0.027128 -0.999632 108 193)"/>
</clipPath>
</defs>
</svg>
